<?xml version="1.0" encoding="UTF-8" ?>
<!DOCTYPE svg PUBLIC "-//W3C//DTD SVG 1.1//EN" "http://www.w3.org/Graphics/SVG/1.1/DTD/svg11.dtd">
<svg width="256pt" height="256pt" viewBox="0 0 256 256" version="1.1" xmlns="http://www.w3.org/2000/svg">
<g id="#ffffffff">
</g>
<g id="#1d83d4ff">
<path fill="#1d83d4" opacity="1.00" d=" M 100.66 36.66 C 107.86 29.43 118.90 32.57 127.98 32.09 C 128.06 96.03 128.06 159.97 127.99 223.91 C 122.31 224.07 116.63 224.17 110.95 223.94 C 104.35 223.72 98.34 218.78 96.59 212.46 C 95.42 207.06 96.15 201.48 96.03 196.00 C 95.97 149.33 96.12 102.67 95.97 56.00 C 95.83 49.35 95.25 41.59 100.66 36.66 Z" />
</g>
<g id="#2196f3ff">
<path fill="#2196f3" opacity="1.00" d=" M 127.98 32.09 C 133.67 31.94 139.36 31.84 145.04 32.10 C 151.90 32.32 158.13 37.65 159.55 44.34 C 160.41 49.18 159.90 54.12 159.97 59.00 C 159.98 105.33 159.94 151.67 159.99 198.00 C 159.89 203.05 160.60 208.27 159.13 213.18 C 157.17 219.16 151.36 223.67 145.05 223.91 C 139.36 224.19 133.67 224.07 127.99 223.91 C 128.06 159.97 128.06 96.03 127.98 32.09 Z" />
</g>
<g id="#dea806ff">
<path fill="#dea806" opacity="1.00" d=" M 0.00 92.49 C 2.04 86.60 6.68 81.12 13.17 80.28 C 20.39 79.52 27.66 80.19 34.90 80.03 C 34.71 128.01 34.71 175.99 34.90 223.97 C 27.66 223.79 20.39 224.49 13.17 223.72 C 6.67 222.86 1.98 217.36 0.00 211.42 L 0.00 92.49 Z" />
</g>
<g id="#ffc107ff">
<path fill="#ffc107" opacity="1.00" d=" M 34.90 80.03 C 43.07 80.30 52.96 78.07 59.31 84.69 C 64.38 89.35 64.21 96.68 64.05 103.01 C 63.86 137.70 64.07 172.39 64.01 207.08 C 64.23 213.03 61.17 219.00 55.91 221.91 C 49.47 225.33 41.88 223.68 34.90 223.97 C 34.71 175.99 34.71 128.01 34.90 80.03 Z" />
</g>
<g id="#e43f33ff">
<path fill="#e43f33" opacity="1.00" d=" M 192.00 127.90 C 191.79 119.77 198.76 112.29 206.91 112.06 C 215.60 111.72 224.29 112.18 232.99 112.03 C 238.20 112.10 243.95 111.42 248.53 114.47 C 252.52 116.85 254.80 121.14 256.00 125.49 L 256.00 210.57 C 254.78 214.89 252.50 219.16 248.53 221.52 C 244.26 224.39 238.89 223.95 233.99 223.97 C 224.96 223.81 215.93 224.28 206.91 223.94 C 200.63 223.71 194.85 219.24 192.85 213.32 C 191.96 210.65 191.97 207.81 191.93 205.03 C 192.04 179.32 191.90 153.61 192.00 127.90 Z" />
</g>
</svg>
