<?xml version="1.0" encoding="utf-8"?>
<!-- Generator: Adobe Illustrator 16.0.0, SVG Export Plug-In . SVG Version: 6.00 Build 0)  -->
<!DOCTYPE svg PUBLIC "-//W3C//DTD SVG 1.1//EN" "http://www.w3.org/Graphics/SVG/1.1/DTD/svg11.dtd">
<svg version="1.1" id="Layer_1" xmlns="http://www.w3.org/2000/svg" xmlns:xlink="http://www.w3.org/1999/xlink" x="0px" y="0px"
	 width="3000px" height="3000px" viewBox="0 0 3000 3000" enable-background="new 0 0 3000 3000" xml:space="preserve">
<g id="_x23_62247eff">
	<path fill="#622B7E" d="M856.832,282.042c-13.978-68.62,82.53-115.568,124.751-62.405c30.448,41.936,48.162,92.262,72.826,137.947
		c17.028,37.351,45.46,77.531,28.933,120.737c-17.702,35.907-43.893,66.143-66.524,98.501c58.712,0.529,117.597,0.529,176.32,0.347
		c31.83-45.503,64.334-90.671,95.816-136.719c-24.505-51.912-53.273-101.891-71.994-156.463
		c-13.267-68.446,78.284-117.008,123.745-67.2c32.477,46.061,51.214,100.825,77.598,150.776c12.77,31.1,35.225,62.042,30.642,97.602
		c-16.691,42.137-47.153,76.269-72.685,112.731c261.104-0.727,522.334-1.614,783.445,0.355
		c39.477-1.969,66.367,32.698,83.047,65.965c87.484,162.476,179.721,322.151,267.186,484.821
		c27.055,46.242,1.059,112.909-48.645,127.134c-43.072,17.235-88.691-11.916-107.076-52.814
		c-82.049-149.873-164.75-299.402-247.955-448.568c-133.631,1.587-267.232-1.609-400.656,1.785
		c113.172,203.568,225.516,407.665,338.854,611.067c16.711,32.011,38.295,72.187,15.35,107.206
		c-115.242,215.838-236.926,427.965-353.518,643.079c133.59-0.17,267.352,0,400.971-0.17
		c94.99-169.619,186.551-341.535,283.705-509.93c32.887-56.885,123.898-48.166,147.084,13.332
		c20.771,41.445-4.783,82.51-24.025,117.926c-96.484,172.244-189.93,346.287-287.629,517.68
		c-18.555,38.24-63.678,39.85-99.207,39.488c-408.322-0.531-816.634-0.332-1224.761,0c-36.581,1.625-79.993-4.977-98.366-42.855
		c-140.595-249.951-277.938-501.902-417.842-752.406c-19.917-32.003-32.181-73.967-9.522-108.279
		c124.751-231.314,254.269-459.775,380.559-690.016c48.85-91.923,109.953-175.669,171.726-258.152
		C905.836,390.151,871.969,339.833,856.832,282.042 M924.39,755.679c-123.91,228.801-253.598,454.084-376.135,683.606
		c127.299,224.562,249.841,452.146,376.3,677.23c133.606,1.072,267.04,0,400.646,0.879
		c-112.486-206.957-227.885-412.309-341.405-618.537c-17.868-31.303-32.351-72.37-9.211-105.26
		c115.059-213.873,236.42-424.212,350.951-638.281c-60.582,0.182-121.179,0.182-181.753-0.336
		c-121.361,205.688-237.6,414.425-358.78,620.136c-6.819,20.431-33.878,40.347-24.004,63.112
		c91.563,187.211,203.556,363.397,289.346,553.618c-97.021-191.469-210.375-373.166-314.708-560.377
		c125.268-227.392,258.874-449.814,386.19-675.97C1055.949,755.316,990.086,755.316,924.39,755.679 M1516.687,769.195
		c-124.08,222.064-245.418,445.548-370.196,667.06c125.102,221.019,243.061,446.437,371.036,665.841
		c121.027-222.24,244.926-442.514,366.791-664.23C1763.642,1213.855,1637.206,993.209,1516.687,769.195z"/>
	<path fill="#622B7E" d="M2458.409,1311.465c59.729-28.275,136.32,25.591,132.064,94.402c1.527,70.939-79.84,124.979-140.086,89.265
		C2379.581,1460.979,2383.669,1338.112,2458.409,1311.465z"/>
	<path fill="#622B7E" d="M221.139,2318.553c24.702-0.22,49.393-0.336,74.103-0.336c0.438,51.053,0.855,102.081-0.336,153.009
		c46.936-54.718,135.31-54.718,184.812-3.799c64.005,60.343,65.716,177.448,2.372,238.923
		c-49.074,52.614-139.393,54.642-186.966-1.004c-0.1,7.838-0.218,23.314-0.319,31.063c-24.366,2.691-48.963,1.567-73.439,1.469
		C221.029,2598.113,221.364,2458.327,221.139,2318.553 M338.622,2511.831c-56.277,26.82-58.524,122.738-2.581,151.215
		c47.035,28.725,116.3-6.843,117.473-65.51C465.229,2533.135,392.736,2481.89,338.622,2511.831z"/>
	<path fill="#622B7E" d="M2721.491,2318.553c24.674-0.22,49.384-0.336,74.185-0.445c-0.536,140.113-0.102,280.092-0.217,420.094
		c-26.095-0.098-52.186-0.671-78.17-2.238c2.248-8.744,6.65-26.133,8.802-34.877c-45.735,54.733-132.396,61.246-184.163,12.222
		c-73.229-61.801-71.301-193.504,3.338-253.191c50.355-44.759,131.753-39.375,176.954,10.78
		C2720.407,2420.07,2721.155,2369.37,2721.491,2318.553 M2613.01,2509.029c-61.74,20.534-68.198,121.718-11.479,152.682
		c47.565,30.612,119.084-4.603,119.505-65.072C2731.14,2535.735,2666.815,2484.691,2613.01,2509.029z"/>
	<path fill="#622B7E" d="M629.628,2455.973c63.037-43.75,159.257-33.204,203.494,34.326c28.02,36.238,31.894,84.692,27.918,129.457
		c-73.23,0.445-146.576-1.241-219.806,1.007c20.827,65.163,106.736,71.232,149.798,26.937c19.543,11.648,39.088,23.428,58.634,35.2
		c-57.242,82.687-189.107,85.606-250.966,7.639C544.149,2622.229,557.257,2505.341,629.628,2455.973 M639.825,2559.176
		c50.047,0.672,100.194,0.782,150.343-0.107c-9.877-22.228-21.37-46.786-45.854-54.188
		C702.006,2486.474,652.184,2513.624,639.825,2559.176z"/>
	<path fill="#622B7E" d="M943.521,2470.555c59.061-58.77,167.195-54.609,217.231,14.824c30.504,36.781,35.333,87.709,31.795,134.377
		c-73.346,0.226-146.802-0.782-220.143,0.659c21.045,64.729,107.27,72.361,150.114,27.041c19.436,11.999,38.99,23.997,58.533,36.013
		c-53.365,75.159-167.311,83.793-234.422,24.793C880.806,2649.813,879.403,2530.92,943.521,2470.555 M970.038,2558.062
		c50.477,2.693,101.052,1.561,151.518,1.217c-10.84-35.1-41.342-64.594-78.604-59.554
		C1008.273,2498.723,983.146,2527.205,970.038,2558.062z"/>
	<path fill="#622B7E" d="M1282.318,2464.826c67.967-60.441,183.194-40.371,227.23,41.521c-20.844,12.886-41.57,25.783-62.288,38.692
		c-23.736-33.536-69.591-51.932-105.988-29.395c-48.118,25.697-53.267,105.008-9.676,137.766
		c35.768,29.27,91.29,17.146,115.337-22.226c21.045,12.458,42.2,25.019,63.353,37.705
		c-43.917,81.192-157.092,103.298-225.937,44.294C1210.037,2655.314,1208.543,2523.953,1282.318,2464.826z"/>
	<path fill="#622B7E" d="M1832.234,2437.479c89.009-34.008,196.177,37.234,200.045,136.951
		c11.704,90.309-66.03,176.332-152.59,172.081c-82.151,3.263-155.811-76.174-150.871-161.878
		C1727.957,2518.898,1772.518,2456.87,1832.234,2437.479 M1842.537,2514.873c-48.548,26.799-53.594,108.47-7.956,140.76
		c45.537,37.479,122.536,2.7,123.62-59.211C1968.068,2532.381,1895.685,2482.775,1842.537,2514.873z"/>
	<path fill="#622B7E" d="M1550.238,2438.802c25.018-0.427,50.044-0.773,75.057-0.773c-0.427,15.364-0.855,30.732-1.408,46.118
		c19.124-32.434,51.563-51.173,87.743-54.097c0.22,28.607,0.22,57.223,0.319,85.82c-33.287,2.03-77.313,13.132-84.087,53.618
		c-6.548,55.424-1.811,111.623-2.031,167.371c-25.234,0.896-50.354,1.116-75.593,0.896
		C1550.238,2638.041,1550.136,2538.426,1550.238,2438.802z"/>
	<path fill="#622B7E" d="M2046.037,2438.138c26.082-0.109,52.185,0,78.275,0.336c16.315,60.695,31.778,121.601,49.52,181.843
		c17.273-60.578,34.342-121.147,51.414-181.843c23.527-0.208,47.146-0.208,70.766-0.099
		c16.225,61.104,35.231,121.473,50.909,182.724c18.901-60.244,32.642-122.171,49.604-183.07c23.744,0.109,47.464,0.109,71.302,0.237
		c-28.56,99.824-55.077,200.228-84.079,299.936c-24.265-0.226-48.531-0.226-72.686-0.226
		c-17.617-59.208-35.231-118.563-53.275-177.682c-21.146,58.323-35.86,119.035-55.296,178.026
		c-24.273-0.217-48.545-0.443-72.702-0.443C2102.715,2637.698,2072.774,2538.315,2046.037,2438.138z"/>
</g>
<path fill="#FBE90C" d="M924.39,755.679c65.696-0.363,131.559-0.363,197.436-0.181c-127.316,226.156-260.922,448.579-386.19,675.97
	c104.333,187.211,217.688,368.909,314.708,560.377c-85.79-190.221-197.783-366.406-289.346-553.618
	c-9.874-22.765,17.186-42.681,24.004-63.112c121.18-205.711,237.419-414.448,358.78-620.136
	c60.574,0.518,121.172,0.518,181.753,0.336c-114.531,214.069-235.892,424.409-350.951,638.281
	c-23.14,32.89-8.657,73.957,9.211,105.26c113.52,206.228,228.918,411.58,341.405,618.537
	c-133.606-0.879-267.039,0.193-400.646-0.879c-126.459-225.084-249.001-452.668-376.3-677.23
	C670.792,1209.764,800.48,984.48,924.39,755.679z"/>
<g>
	<path fill="#FBE90C" d="M1516.687,769.195c-124.08,222.064-245.418,445.548-370.196,667.06
		c125.102,221.019,243.061,446.437,371.036,665.841c121.027-222.24,244.926-442.514,366.791-664.23
		C1763.642,1213.855,1637.206,993.209,1516.687,769.195z M1510.285,1839L1317,1449l198.404-434l213.179,434L1510.285,1839z"/>
</g>
</svg>
