<?xml version="1.0" encoding="utf-8"?>
<!-- Generator: Adobe Illustrator 16.0.0, SVG Export Plug-In . SVG Version: 6.00 Build 0)  -->
<!DOCTYPE svg PUBLIC "-//W3C//DTD SVG 1.1//EN" "http://www.w3.org/Graphics/SVG/1.1/DTD/svg11.dtd">
<svg version="1.1" id="Layer_1" xmlns="http://www.w3.org/2000/svg" xmlns:xlink="http://www.w3.org/1999/xlink" x="0px" y="0px"
	 width="3000px" height="3000px" viewBox="0 0 3000 3000" enable-background="new 0 0 3000 3000" xml:space="preserve">
<linearGradient id="SVGID_1_" gradientUnits="userSpaceOnUse" x1="181.7339" y1="3238.9668" x2="181.7338" y2="1973.6008" gradientTransform="matrix(1.5 0 0 -1.5 1193.5 5606.5)">
	<stop  offset="0" style="stop-color:#7AC3ED"/>
	<stop  offset="1" style="stop-color:#D1ADD2"/>
</linearGradient>
<path fill="url(#SVGID_1_)" d="M1178.41,2678.174c-0.121-17.745-0.282-94.666-0.438-166.627l-0.121-74.813
	c-323.157,44.16-401.379-182.36-402.255-184.752c-44.833-114.268-106.177-146.93-108.804-148.251l-5.97-3.484
	c-22.231-15.237-81.196-55.813-64.437-109.179c15.132-48.087,73.755-53.052,100.425-52.201
	c147.632,10.396,222.351,143.666,225.417,149.314c75.346,129.755,190.339,116.312,264.562,88.987
	c6.909-33.231,17.604-63.699,31.643-90.619c-237.99-42.43-507.647-169.577-507.647-632.201
	c0-127.021,39.359-239.309,117.213-334.287c-17.386-58.171-37.175-176.867,21.413-326.374l8.351-21.328l21.73-6.941
	c19.975-6.628,129.09-30.121,353.382,117.378c92.61-23.841,190.593-36.12,291.704-36.624
	c101.549,0.503,199.657,12.783,292.454,36.624C2041.133,735.267,2150,759.043,2170.037,765.417l21.666,7.006l8.35,21.229
	c58.838,149.448,39.049,268.173,21.669,326.408c77.69,94.694,117.05,207.017,117.05,334.287
	c0,462.722-269.904,589.518-508.426,631.355c27.011,51.386,41.678,115.9,41.678,187.104c0,81.193-0.346,347.543-0.722,405.367
	l-96.045-0.689c0.374-57.7,0.72-323.612,0.72-404.709c0-117.815-45.305-169.924-64.841-186.916l-83.075-72.209l109.209-12.221
	c249.966-27.857,505.428-114.768,505.428-547.116c0-112.445-37.302-210.41-110.925-291.222l-20.67-22.618l11.634-28.328
	c7.97-19.353,42.955-117.816-2.063-255.264c-36.397,2.167-123.309,19.412-268.162,118.066l-18.447,12.504l-21.352-5.94
	c-89.48-25.003-189.123-38.412-288.199-38.885c-98.547,0.474-198.033,13.882-287.354,38.885l-21.386,5.94l-18.383-12.504
	c-144.975-98.626-232.083-115.993-268.659-118.158c-44.896,137.54-9.883,236.003-1.907,255.356l11.628,28.328l-20.602,22.618
	c-73.79,81.096-111.115,179.095-111.115,291.222c0,432.159,254.991,519.57,504.426,548.094l108.142,12.344l-82.008,71.896
	c-17.881,15.671-49.49,53.643-60.244,131.536l-3.596,26.511l-24.294,10.934c-63.435,28.582-280.415,104.307-410.506-119.859
	c-0.721-1.227-26.104-45.606-72.131-75.132c31.015,30.845,68.818,80.725,99.302,158.583c3.187,9.142,65.187,174.731,349.601,112.855
	l57.933-12.654l0.593,191.908c0.127,71.739,0.253,148.406,0.409,166.155L1178.41,2678.174z"/>
<linearGradient id="SVGID_2_" gradientUnits="userSpaceOnUse" x1="213.7974" y1="3592.7607" x2="213.7973" y2="1850.589" gradientTransform="matrix(1.5 0 0 -1.5 1193.5 5606.5)">
	<stop  offset="0" style="stop-color:#456CB4"/>
	<stop  offset="1" style="stop-color:#9654A1"/>
</linearGradient>
<path fill="url(#SVGID_2_)" d="M1514.197,2774.315c-688.517,0-1248.592-562.661-1248.592-1254.353
	c0-691.697,560.075-1254.359,1248.592-1254.359c688.514,0,1248.589,562.662,1248.589,1254.359
	C2762.786,2211.654,2202.711,2774.315,1514.197,2774.315z M1514.197,362.093c-635.49,0-1152.547,519.445-1152.547,1157.87
	c0,638.418,517.057,1157.863,1152.547,1157.863c635.486,0,1152.543-519.445,1152.543-1157.863
	C2666.74,881.538,2149.684,362.093,1514.197,362.093z"/>
</svg>
