<?xml version="1.0" encoding="utf-8"?>
<!-- Generator: Adobe Illustrator 16.0.0, SVG Export Plug-In . SVG Version: 6.00 Build 0)  -->
<!DOCTYPE svg PUBLIC "-//W3C//DTD SVG 1.1//EN" "http://www.w3.org/Graphics/SVG/1.1/DTD/svg11.dtd">
<svg version="1.1" id="Layer_1" xmlns="http://www.w3.org/2000/svg" xmlns:xlink="http://www.w3.org/1999/xlink" x="0px" y="0px"
	 width="3000px" height="3000px" viewBox="0 0 3000 3000" enable-background="new 0 0 3000 3000" xml:space="preserve">
<path fill="#4584B6" d="M850.488,1767.595c-3.008-72.709,19.428-146.953,65.07-204.011
	c53.586-70.156,138.543-116.34,227.057-119.577c200.607-0.619,401.218,0.926,601.828-0.844
	c167.151-7.636,312.021-156.283,316.338-323.272c0.927-179.722,0.54-359.442,0.229-539.155c0.773-36.389,1.158-73.553-10.1-108.556
	c-28.604-106.469-113.641-190.895-213.176-233.994c-70.16-32.46-148.262-38.471-223.971-47.106
	c-172.315-15.959-347.33-10.101-516.947,25.286c-92.285,20.819-191.278,59.139-241.243,145.022
	c-53.043,92.053-39.087,202.311-41.554,303.922c-2.777,29.68,19.505,61.756,50.961,61.68c173.242-0.076,346.56,0.308,519.798-0.15
	c0,21.585,0,43.172,0,64.839c-237.54-0.315-475.082-0.073-712.543-0.157c-82.189-0.075-166.534,15.961-236.771,60.527
	c-91.747,54.195-155.432,147.564-184.035,249.104c-24.903,99.609-44.177,201.148-46.877,304.005
	c-1.23,75.171,7.018,150.184,20.589,224.037c18.116,97.381,40.323,197.534,97.913,280.183
	c51.271,76.557,134.15,133.846,226.668,144.793c79.26,8.328,159.133,1.152,238.698,3.697c30.147,4.013,63.147-18.966,61.987-50.964
	C851.105,1927.107,851.335,1847.389,850.488,1767.595z M744.17,1714.084c-3.47,78.718,0.927,157.594-2.314,236.304
	c-80.875-5.392-167.303,13.809-243.011-23.589c-77.87-40.244-120.275-124.284-142.402-205.621
	c-25.367-98.144-42.943-198.84-43.869-300.452c1.386-64.991,8.79-129.757,21.432-193.438
	c14.728-72.009,29.144-147.572,75.171-207.172c53.197-73.696,142.168-117.26,232.53-118.646
	c264.679-0.857,529.437,0.151,794.19-0.467c28.373,1.162,56.746-20.892,56.129-50.731c0.463-58.983,1.539-117.959,0.771-176.859
	c1.156-30.223-26.445-56.514-56.359-54.51c-170.852,0.226-341.779,0-512.705,0.073c1.928-69.238-9.717-144.867,27.985-207.081
	c37.778-55.361,106.937-74.102,168.384-89.673c151.575-32.073,308.008-36.469,462.127-24.904
	c80.953,8.717,166.457,11.722,238.932,53.125c72.471,39.634,131.76,114.188,132.223,199.53
	c-0.074,187.507,0.389,375.006-0.23,562.436c-2.391,114.563-101.463,217.495-216.264,222.583
	c-187.885-0.542-375.701,0.459-563.512-0.458c-36.621-0.317-73.318,2.463-108.939,11.173
	C893.818,1383.638,757.045,1539.303,744.17,1714.084z"/>
<path fill="#646464" d="M1085.098,362.852c-46.414,13.491-80.029,61.302-76.482,109.639
	c-0.846,58.516,53.197,108.862,111.102,107.012c59.67,0.616,112.408-55.197,107.858-114.873
	C1228.811,394.775,1150.939,338.803,1085.098,362.852z"/>
<path fill="#FFDE57" d="M2542.569,915.422c-80.955-47.418-177.403-34.775-266.913-36.312c-38.32,1.075-76.869-2.619-114.955,2.228
	c-25.367,7.711-38.783,35.553-37.702,60.761c0.079,80.027,0,160.055,0.08,240.082c5.474,159.444-134.847,308.552-294.903,310.48
	c-197.451,1.159-394.899,0-592.349,0.618c-64.378,3.237-127.366,26.206-179.099,64.682
	c-88.59,63.371-143.405,170.468-144.098,279.325c-0.154,179.87,0.076,359.741-0.154,539.612
	c0.464,48.954,11.795,98.225,35.08,141.397c48.878,89.897,139.393,148.114,232.759,183.885
	c113.721,41.863,234.841,63.149,355.964,65.302c124.9-2.396,249.723-24.981,366.915-68.388
	c95.137-36.93,188.272-98.761,231.449-194.675c36.85-73.245,23.049-156.893,25.903-235.61c3.625-30.146-24.519-58.44-54.434-56.903
	c-171.773,0.539-343.627-0.461-515.479,0.391c-0.079-22.746,0.384-45.416,0.309-68.004c251.343,0.15,502.76,0,754.176,0.077
	c38.934-0.304,78.334,2.47,116.574-6.627c80.72-15.118,149.418-71.015,189.818-141.321c48.26-82.655,78.716-174.555,101.459-267.15
	c41.017-174.163,18.195-355.813-25.214-527.198C2698.926,1091.056,2647.577,973.48,2542.569,915.422z M2632.084,1761.889
	c-21.897,67.068-43.485,135.689-83.731,194.521c-32.768,53.112-94.755,82.339-156.434,79.718
	c-285.34,1.153-570.685-0.464-856.022,0.769c-28.838-1.458-54.125,26.218-52.814,54.514c-0.076,56.588,0.154,113.252-0.076,169.843
	c-2.236,29.528,22.434,59.209,52.813,58.832c172.237-0.468,344.398,0.075,516.637-0.316c-0.385,47.345,4.854,97.226-16.81,141.174
	c-32.768,67.927-101.613,109.246-169.384,136.156c-154.196,56.355-323.35,77.641-485.491,46.802
	c-101.924-19.434-207.933-46.96-288.269-116.268c-44.256-36.705-72.322-92.293-71.012-150.266
	c0.616-141.475-0.23-282.954,0.463-424.436c0.696-56.663-5.474-114.096,6.169-170.074
	c23.051-100.688,118.806-181.799,223.197-181.566c189.897-0.392,379.791-0.392,569.684,0
	c122.511,0.919,241.936-60.443,317.803-155.582c60.597-73.636,93.828-168.697,93.902-263.837c0-64.373-0.229-128.673-0.463-193.047
	c55.742-2.169,111.484-0.392,167.228-1.086c56.594-1.159,112.257,25.985,146.723,70.699
	c51.963,66.227,73.089,149.958,90.437,230.755C2671.637,1444.081,2681.35,1608.851,2632.084,1761.889z"/>
<path fill="#646464" d="M1797.798,2577.974c63.761,7.093,124.125-51.966,118.345-116.032
	c-0.31-70.934-81.029-125.743-146.951-98.761c-40.627,14.486-71.621,54.587-72.856,98.067
	C1692.246,2518.764,1739.357,2575.428,1797.798,2577.974z"/>
</svg>
