<?xml version="1.0" encoding="utf-8"?>
<!-- Generator: Adobe Illustrator 16.0.0, SVG Export Plug-In . SVG Version: 6.00 Build 0)  -->
<!DOCTYPE svg PUBLIC "-//W3C//DTD SVG 1.1//EN" "http://www.w3.org/Graphics/SVG/1.1/DTD/svg11.dtd">
<svg version="1.1" id="Layer_1" xmlns="http://www.w3.org/2000/svg" xmlns:xlink="http://www.w3.org/1999/xlink" x="0px" y="0px"
	 width="3000px" height="3000px" viewBox="0 0 3000 3000" enable-background="new 0 0 3000 3000" xml:space="preserve">
<g>
	<g>
		<path fill="#265366" d="M282.798,198.952c811.47,0.538,1622.941,0.269,2434.403,0.133
			c-75.408,810.779-140.222,1622.661-217.557,2433.169c-323.785,93.018-648.265,183.43-971.64,277.82
			c-19.13,7.014-38.258,6.877-57.522,0c-322.826-94.818-647.028-184.668-970.262-277.967
			C423.159,1821.477,357.661,1009.864,282.798,198.952z M441.462,340.952c58.618,725.458,130.584,1449.964,187.556,2175.571
			c276.316,87.777,557.994,159.066,835.686,242.732c40.18,16.785,80.225-4.957,119.169-14.311
			c261.587-78.572,527.03-145.172,786.832-228.703c20.779-311,55.041-620.885,79.265-931.604
			c35.777-414.605,75.957-828.797,108.431-1243.687C1852.759,341.772,1147.107,341.772,441.462,340.952z"/>
	</g>
</g>
<g>
	<path fill="#24C9FC" d="M842.585,769.886c3.165,95.758,16.374,190.713,20.088,286.488c212.474,1.066,424.892,0.874,637.327,0.675
		V770.354C1280.863,770.39,1061.725,770.291,842.585,769.886z"/>
	<path fill="#24C9FC" d="M1172.43,1343.963c5.229,95.788,1.098,192.516,15.408,287.605c104.077-1.301,208.121-1.576,312.162-1.496
		v-286.414C1390.832,1343.552,1281.647,1343.416,1172.43,1343.963z"/>
	<path fill="#24C9FC" d="M1205.454,1950.268c-0.827-59.033-4.131-118.068-5.367-177.098c-95.5-1.24-190.998,0-286.497-1.791
		c3.165,131.693,17.06,262.688,20.226,394.383c188.522,61.654,376.772,125.08,565.706,185.219c0.159-0.049,0.317-0.102,0.478-0.15
		v-300.818C1400.675,2020.709,1303.543,1983.561,1205.454,1950.268z"/>
	<path fill="#3C809E" d="M2152.052,770.02c-217.352,0.134-434.701,0.301-652.052,0.335v286.695
		c116.659-0.11,233.322-0.22,350.003-0.125c-4.954,95.492-15.688,190.58-18.578,286.221c-110.47,0.696-220.939,0.621-331.425,0.513
		v286.414c104.502,0.084,209.002,0.529,313.538,0.662c-3.309,106.646-14.587,212.889-19.131,319.4
		c-98.113,33.166-194.986,71.008-294.343,99.896c-0.022-0.006-0.043-0.012-0.064-0.02v300.818
		c188.219-58.594,374.52-124.297,562.884-182.732C2097.145,1702.441,2119.161,1235.814,2152.052,770.02z"/>
</g>
</svg>
