<?xml version="1.0" encoding="utf-8"?>
<!-- Generator: Adobe Illustrator 16.0.0, SVG Export Plug-In . SVG Version: 6.00 Build 0)  -->
<!DOCTYPE svg PUBLIC "-//W3C//DTD SVG 1.1//EN" "http://www.w3.org/Graphics/SVG/1.1/DTD/svg11.dtd">
<svg version="1.1" id="Layer_1" xmlns="http://www.w3.org/2000/svg" xmlns:xlink="http://www.w3.org/1999/xlink" x="0px" y="0px"
	 width="3000px" height="3000px" viewBox="0 0 3000 3000" enable-background="new 0 0 3000 3000" xml:space="preserve">
<g>
	<g>
		<path fill="#010101" d="M467.204,315.528c721.998,0.479,1443.997,0.239,2165.988,0.119
			c-67.094,721.383-124.76,1443.748-193.569,2164.89c-288.085,82.762-576.787,163.205-864.508,247.188
			c-17.02,6.241-34.039,6.12-51.18,0c-287.231-84.364-575.687-164.306-863.282-247.319
			C592.089,1759.154,533.813,1037.03,467.204,315.528z M608.374,441.872c52.154,645.47,116.187,1290.093,166.876,1935.695
			c245.849,78.1,496.47,141.529,743.544,215.97c35.75,14.934,71.38-4.412,106.029-12.733
			c232.745-69.91,468.921-129.166,700.077-203.487c18.489-276.71,48.973-552.426,70.525-828.885
			c31.833-368.892,67.583-737.416,96.476-1106.56C1864.063,442.602,1236.215,442.602,608.374,441.872z"/>
	</g>
	<path fill="#010101" d="M965.269,823.512c388.365,0.716,776.723,0.358,1165.087,0.119
		c-29.264,414.436-48.854,829.613-79.337,1243.928c-167.737,52.036-333.635,110.55-501.246,162.717
		c-168.102-53.507-335.595-109.94-503.332-164.796c-2.816-117.175-15.179-233.726-17.995-350.899
		c84.969,1.592,169.938,0.491,254.907,1.592c1.1,52.523,4.04,105.049,4.776,157.573c87.293,29.629,173.733,62.688,262.127,88.764
		c88.401-25.705,174.594-59.374,261.889-88.883c4.042-94.767,14.078-189.295,17.021-284.183
		c-185.612-0.238-371.099-1.578-556.711,0.742c-12.733-84.605-9.057-170.668-13.709-255.894
		c195.524-0.98,390.93,0.503,586.334-0.728c2.571-85.096,12.123-169.699,16.53-254.662c-292.862-0.24-585.605,0.98-878.467-0.49
		C979.838,993.197,968.085,908.712,965.269,823.512z"/>
</g>
</svg>
