<?xml version="1.0" encoding="utf-8"?>
<!-- Generator: Adobe Illustrator 16.0.0, SVG Export Plug-In . SVG Version: 6.00 Build 0)  -->
<!DOCTYPE svg PUBLIC "-//W3C//DTD SVG 1.1//EN" "http://www.w3.org/Graphics/SVG/1.1/DTD/svg11.dtd">
<svg version="1.1" id="Layer_1" xmlns="http://www.w3.org/2000/svg" xmlns:xlink="http://www.w3.org/1999/xlink" x="0px" y="0px"
	 width="3000px" height="3000px" viewBox="0 0 3000 3000" enable-background="new 0 0 3000 3000" xml:space="preserve">
<g>
	<path d="M209.372,1020.631c104.423,5.937,205.35-79.616,211.179-184.992c9.013-78.559-32.441-159.131-101.453-197.4
		c-47.18-28.621-105.802-31.696-158.494-19.613C70.28,641.526,4.021,732.487,10.699,825.564
		C13.033,929.353,105.583,1019.889,209.372,1020.631z"/>
	<path d="M607.028,1010.985c75.908,24.916,165.066,1.274,217.649-59.156c50.885-55.974,65.093-141.318,37.208-211.392
		c-35.723-95.732-147.25-149.269-245.101-122.553c-83.01,20.992-147.996,98.378-151.816,184.252
		C456.915,893.625,519.148,984.908,607.028,1010.985z"/>
	<path d="M1275.874,990.098c66.15-32.016,69.438-149.48-7.848-169.724c16.113-19.931,35.727-41.345,33.604-69.122
		c6.575-49.932-36.892-94.248-85.127-97.96c-53.958-3.815-108.136-0.527-162.199-1.377c-0.109,119.479-0.109,239.06,0,358.538
		C1127.769,1005.577,1207.705,1025.402,1275.874,990.098z M1232.298,944.618c-36.043,12.936-75.586,4.562-113.007,6.896
		c-0.109-31.805-0.109-63.506,0-95.205c39.222,2.759,81.735-7.526,118.521,9.861
		C1269.511,881.435,1264.424,932.961,1232.298,944.618z M1119.291,711.284c28.196-0.212,56.718-2.651,84.915,1.378
		c33.818,4.983,45.589,53.534,18.765,73.997c-30.53,18.765-68.272,12.189-102.302,14.1
		C1119.079,770.968,1118.867,741.075,1119.291,711.284z"/>
	<path d="M1428.319,1010.665c0-46.008,0-91.912,0-137.921c25.02,3.179,58.837-9.861,76.013,14.417
		c27.145,38.166,43.047,82.906,66.051,123.504c23.854,0,47.707,0.109,71.662,0.212c-25.24-55.124-48.76-112.37-86.819-159.972
		c26.712-17.279,53.847-39.331,58.827-72.937c14.203-53.751-23.637-112.375-78.229-121.703
		c-56.62-9.122-114.182-2.652-171.112-4.453c0,119.583,0.103,239.163,0,358.641
		C1385.812,1010.562,1407.014,1010.562,1428.319,1010.665z M1429.061,710.331c31.275,2.226,64.99-5.196,94.775,7.103
		c37.313,16.958,33.503,77.497-4.554,91.488c-29.264,8.801-60.856,3.287-90.963,4.877
		C1428.319,779.241,1428.319,744.785,1429.061,710.331z"/>
	<path d="M1745.307,1009.397c-1.17-118.95-0.539-238.003-0.436-356.954c-21.721-0.42-43.461-0.742-65.078-0.845
		c-0.218,119.583,0.103,239.164-0.218,358.641C1701.41,1010.773,1723.357,1010.562,1745.307,1009.397z"/>
	<path d="M1902.309,710.86c0.113,99.863,0,199.836,0,299.701c21.834,0.212,43.678-0.109,65.627-1.061
		c-0.104-99.864-2.65-199.729,1.367-299.382c37.104,0.845,74.323,0.845,111.646,0.633c-0.114-19.718-0.114-39.331-0.114-58.94
		c-97.433-0.109-194.749,0-292.067-0.109c-0.104,19.719,0,39.332,0,59.05C1826.618,710.752,1864.469,710.86,1902.309,710.86z"/>
	<path d="M2190.463,1009.609c-0.965-119.162-0.218-238.319-0.436-357.378c-21.731-0.317-43.357-0.42-64.986-0.42
		c-0.104,119.583,0,239.06-0.104,358.641C2146.67,1010.665,2168.514,1010.452,2190.463,1009.609z"/>
	<path d="M2420.711,945.789c-47.914,28.196-105.269,6.568-151.07-15.059c-8.582,17.708-17.383,35.413-25.965,53.219
		c62.76,36.261,145.449,45.268,211.283,11.874c55.863-26.818,72.408-111.101,27.672-155.206
		c-40.282-36.892-98.59-39.967-143.231-69.224c-20.884-13.464-19.919-49.618,4.349-58.732c47.602-16.964,98.807-0.954,143.439,17.6
		c-0.32-21.203-0.426-42.407-0.529-63.506c-56.827-20.354-122.972-28.62-179.166-2.438
		c-54.271,25.229-68.164,103.788-29.361,147.891c38.48,38.695,97.109,40.921,141.947,68.802
		C2442.979,893.945,2444.357,933.064,2420.711,945.789z"/>
	<path d="M2625.326,1009.075c-1.273-50.885-0.537-101.878-0.641-152.767c56.93-0.317,114.067,0,171.111-0.104
		c0,51.418,0.207,102.835,0,154.144c21.203,0.212,42.405,0.212,63.713,0.103c-0.104-119.581,0-239.058,0-358.641
		c-21.308,0-42.51,0-63.609,0c0,48.447-0.104,96.894,0,145.345c-57.033-0.109-114.067,0.315-171.111-0.321
		c-0.209-48.13-0.209-96.365,0-144.495c-21.722-0.317-43.462-0.638-64.977-0.638c-0.435,119.588,0,239.169-0.217,358.75
		C2581.43,1010.876,2603.377,1010.452,2625.326,1009.075z"/>
	<path d="M403.271,1181.244c-41.133-93.61-157.856-142.27-253.797-107.606c-118.525,35.94-177.045,189.023-112.691,294.934
		c54.487,103.042,201.954,135.167,296.094,67.957C414.825,1383.52,444.404,1268.811,403.271,1181.244z"/>
	<path d="M664.807,1471.086c88.099,6.253,173.649-54.705,200.579-137.922c24.914-73.046,4.984-159.871-51.631-212.986
		c-51.521-50.781-130.819-69.546-200.153-49.719c-94.988,24.593-161.986,124.779-147.571,221.992
		C475.467,1390.41,565.896,1473.312,664.807,1471.086z"/>
	<path d="M1292.411,1417.338c-6.258-18.977-13.251-37.637-20.778-56.081c-46.225,20.353-108.136,28.196-147.149-10.71
		c-50.461-53.219-48.659-150.112,6.894-199.091c39.331-33.606,96.153-24.914,140.044-5.622
		c7.739-18.231,14.841-36.681,21.204-55.446c-66.259-27.77-150.439-33.18-209.063,14.211
		c-80.464,68.587-85.235,205.133-18.025,284.326C1123.105,1450.623,1219.471,1447.129,1292.411,1417.338z"/>
	<path d="M1329.941,1366.662c57.351,90.219,204.601,95.835,270.756,12.722c52.054-66.791,54.496-167.607,10.497-239.063
		c-38.905-61.59-120.54-83.113-188.491-65.198C1300.255,1105.549,1266.965,1269.659,1329.941,1366.662z M1439.661,1133.114
		c47.179-18.025,103.152,9.964,120.866,56.398c24.267,56.718,15.902,135.275-36.588,173.334
		c-46.002,32.756-117.034,13.464-140.25-37.845C1351.146,1260.969,1365.24,1160.254,1439.661,1133.114z"/>
	<path d="M2404.178,1385.747c57.033,64.24,155.635,62.547,229.523,31.482c-6.47-18.551-12.828-36.995-18.77-55.548
		c-46.65,17.382-107.392,29.044-146.93-9.437c-59.053-58.096-49.404-175.771,26.919-215c39.019-17.067,81.85-4.663,120.331,7.847
		c6.254-18.551,11.772-37.419,17.602-56.184c-69.873-27.25-159.447-31.805-217.111,23.428
		C2345.766,1183.26,2342.37,1308.777,2404.178,1385.747z"/>
	<path d="M1679.678,1072.896c0.529,79.51-0.631,158.917,0.323,238.319c0,43.782,21.099,91.278,62.759,109.938
		c49.301,22.902,108.457,22.052,158.814,2.967c44.516-18.128,69.861-65.834,69.541-112.692c2.328-79.51,0.104-159.021,0.951-238.531
		c-21.938-0.212-43.886,0.108-65.628,1.273c1.067,68.696,0.323,137.395,0.747,206.091c-0.953,26.291,0.32,57.143-20.148,77.073
		c-22.155,24.593-58.824,21.094-88.621,18.236c-34.35-5.301-56.194-41.137-53.431-74.422c-0.527-75.483-0.962-150.967,0.631-226.341
		C1723.669,1072.793,1701.617,1072.369,1679.678,1072.896z"/>
	<path d="M2022,1073.005c0,119.581-0.105,239.164,0,358.642c22.153,0,44.309-0.104,66.568-0.104
		c-0.84-84.072,2.34-168.246-2.537-252.1c60.006,80.675,113.115,166.549,172.801,247.54c17.807,9.752,40.294,2.97,60.007,4.875
		c0-119.69,0-239.272,0-358.962c-21.308,0-42.511,0-63.609,0c-0.321,77.921,0.642,155.843-0.527,233.765
		c-57.356-74.106-104.845-155.418-161.248-230.162C2070.656,1068.548,2045.645,1073.85,2022,1073.005z"/>
	<path d="M2676.314,1072.896c0,119.586-0.207,239.272,0.114,358.858c21.616,0,43.358-0.321,65.088-0.739
		c-0.218-119.054-0.849-238.004,0.321-356.954C2719.994,1073.005,2698.045,1072.684,2676.314,1072.896z"/>
	<path d="M2859.51,1072.896c-21.308-0.104-42.51-0.104-63.609,0c0,119.586-0.104,239.169,0,358.75
		c67.109-0.631,134.319,1.698,201.428-1.269v-57.882c-45.803,0.104-91.604,0.104-137.291,0.527
		C2859.084,1272.946,2859.717,1172.869,2859.51,1072.896z"/>
	<path d="M2812.279,1970.407c-60.223-48.97-138.459-65.191-210.02-90.526c-55.658-20.042-115.871-30.851-166.227-63.4
		c-29.154-17.808-37.105-63.081-11.99-87.669c39.758-42.198,106.337-41.142,158.504-27.042
		c45.471,12.404,71.229,57.562,75.473,102.102c66.156,2.649,132.518,0.517,198.776,1.055
		c1.388-66.155-20.561-133.687-67.313-181.393c-64.883-66.26-161.257-90.848-251.576-89.264
		c-88.941-1.698-184.676,16.327-253.046,77.078c-68.91,57.873-93.405,158.699-68.175,243.729
		c20.354,67.843,77.813,118.2,140.365,147.354c81.415,37.426,168.773,59.155,253.904,86.291
		c26.607,9.226,59.789,19.608,66.363,51.103c15.262,38.265-17.29,78.351-53.432,88.735
		c-58.422,16.637-127.217,18.127-179.375-16.969c-36.68-24.381-48.336-70.711-51.102-112.165
		c-68.381,0.953-136.969-2.96-205.246,2.236c8.902,65.09,21.099,132.829,62.655,185.939
		c56.507,75.38,154.569,104.108,245.104,105.808c105.59,3.924,220.508-7.424,306.168-75.163
		C2907.153,2236.51,2914.256,2057.455,2812.279,1970.407z"/>
	<path d="M57.075,1555.897v816.308c69.862-0.104,139.723,0.311,209.59-0.312c-0.109-271.722-0.958-543.435,0.424-815.251
		C197.119,1555.047,127.045,1556.207,57.075,1555.897z"/>
	<path d="M563.292,2202.582c-0.212-54.384,0.424-108.871-0.424-163.265c140.572-2.435,281.148-0.415,421.727-0.953
		c0.103-55.762,0.103-111.419,0.103-167.075c-140.044,0.311-280.087-0.85-420.028,0.642c-2.858-48.773-0.85-97.649-1.377-146.412
		c140.468,0,280.936,0,421.405,0c0-56.505,0-113.114,0-169.621c-211.179,0-422.255,0-633.433,0c0,272.034-0.103,544.171,0,816.308
		c212.131-0.208,424.267,0.424,636.295-0.312c-0.424-56.298-0.528-112.598,0.103-168.888
		C846.243,2202.055,704.822,2202.893,563.292,2202.582z"/>
	<path d="M1276.235,1555.897c-70.709,0-141.317,0-212.027,0c0,272.137,0,544.171,0,816.308c198.776,0,397.552,0,596.327,0
		c0-60.109,0-120.219,0-180.225c-128.063,0-256.233,0-384.3,0C1276.235,1979.953,1276.339,1767.925,1276.235,1555.897z"/>
	<path d="M1504.27,1555.794c-0.633,55.118,1.169,110.145-1.377,165.273c78.133,4.026,156.268,0.745,234.4,1.698
		c-0.424,216.055,1.264,432.008-0.953,647.948c70.918,3.293,141.951,0.538,212.98,1.491c1.16-216.688-2.019-433.499,1.596-650.081
		c78.122,1.593,156.257,0.435,234.39,0.642c0.104-55.45-0.425-110.901,0.425-166.227
		C1958.648,1555.047,1731.454,1556.321,1504.27,1555.794z"/>
	<path d="M2996.52,1552.088c-7.951,0.848-24.059,2.535-32.012,3.386c-4.027,18.551-9.006,37-15.694,54.808
		c-5.611-18.979-8.687-38.793-17.485-56.609c-38.907,3.28-77.823-2.434-116.73-0.736l0.114,18.118
		c7.206,0.538,21.42,1.698,28.522,2.236c3.064,25.54,1.584,51.516,2.215,77.274c5.197,0,15.696-0.104,20.893-0.207
		c0.208-25.552,0.104-51.102,0.104-76.654c8.262-0.951,25.014-2.961,33.398-3.912c-0.217,25.758-1.697,51.618,0.851,77.377
		c5.196,1.389,15.581,4.348,20.768,5.736c0.642-21.638,1.065-43.255,1.489-64.893c6.461,24.184,7.631,51.848,27.777,69.759
		c15.271-20.562,20.779-45.906,27.457-70.068c-0.85,21.947-1.067,43.896,0,65.946l16.223-5.631
		C2999.709,1616.328,2996.105,1583.996,2996.52,1552.088z"/>
</g>
</svg>
