<?xml version="1.0" encoding="utf-8"?>
<!-- Generator: Adobe Illustrator 16.0.0, SVG Export Plug-In . SVG Version: 6.00 Build 0)  -->
<!DOCTYPE svg PUBLIC "-//W3C//DTD SVG 1.1//EN" "http://www.w3.org/Graphics/SVG/1.1/DTD/svg11.dtd">
<svg version="1.1" id="Layer_1" xmlns="http://www.w3.org/2000/svg" xmlns:xlink="http://www.w3.org/1999/xlink" x="0px" y="0px"
	 width="3000px" height="3000px" viewBox="0 0 3000 3000" enable-background="new 0 0 3000 3000" xml:space="preserve">
<g>
	<path fill="#1C558E" d="M209.372,1020.631c104.423,5.938,205.35-79.616,211.179-184.992
		c9.014-78.559-32.44-159.131-101.453-197.399c-47.18-28.621-105.802-31.696-158.494-19.613
		C70.28,641.526,4.021,732.487,10.699,825.564C13.033,929.354,105.583,1019.889,209.372,1020.631z"/>
	<path fill="#1C558E" d="M607.028,1010.985c75.907,24.916,165.065,1.273,217.648-59.156
		c50.886-55.974,65.093-141.318,37.208-211.392c-35.723-95.732-147.25-149.27-245.101-122.554
		c-83.011,20.992-147.996,98.378-151.816,184.252C456.915,893.625,519.148,984.908,607.028,1010.985z"/>
	<path fill="#1C558E" d="M1275.874,990.098c66.149-32.016,69.438-149.479-7.849-169.724c16.113-19.931,35.728-41.345,33.604-69.122
		c6.575-49.932-36.892-94.248-85.127-97.96c-53.958-3.815-108.136-0.527-162.198-1.377c-0.109,119.479-0.109,239.06,0,358.538
		C1127.77,1005.577,1207.705,1025.402,1275.874,990.098z M1232.298,944.618c-36.043,12.936-75.586,4.562-113.007,6.896
		c-0.109-31.805-0.109-63.506,0-95.205c39.223,2.76,81.734-7.525,118.521,9.861C1269.511,881.435,1264.424,932.961,1232.298,944.618
		z M1119.291,711.284c28.196-0.212,56.718-2.651,84.915,1.378c33.817,4.982,45.589,53.534,18.765,73.997
		c-30.529,18.765-68.271,12.188-102.302,14.1C1119.079,770.968,1118.867,741.075,1119.291,711.284z"/>
	<path fill="#1C558E" d="M1428.318,1010.665c0-46.008,0-91.912,0-137.921c25.021,3.179,58.838-9.861,76.014,14.417
		c27.145,38.166,43.047,82.906,66.051,123.504c23.854,0,47.707,0.108,71.662,0.212c-25.24-55.124-48.76-112.37-86.818-159.972
		c26.711-17.279,53.847-39.331,58.826-72.938c14.203-53.751-23.637-112.375-78.229-121.703
		c-56.62-9.122-114.182-2.651-171.112-4.453c0,119.583,0.104,239.163,0,358.642
		C1385.813,1010.563,1407.014,1010.563,1428.318,1010.665z M1429.061,710.331c31.275,2.226,64.99-5.196,94.775,7.103
		c37.313,16.959,33.503,77.497-4.554,91.488c-29.265,8.801-60.856,3.287-90.963,4.877
		C1428.318,779.241,1428.318,744.785,1429.061,710.331z"/>
	<path fill="#1C558E" d="M1745.307,1009.396c-1.17-118.949-0.539-238.002-0.436-356.953c-21.721-0.42-43.461-0.742-65.078-0.846
		c-0.218,119.583,0.104,239.164-0.218,358.642C1701.41,1010.773,1723.357,1010.563,1745.307,1009.396z"/>
	<path fill="#1C558E" d="M1902.309,710.86c0.113,99.862,0,199.836,0,299.7c21.834,0.213,43.678-0.108,65.627-1.061
		c-0.104-99.864-2.649-199.729,1.367-299.382c37.104,0.845,74.323,0.845,111.646,0.633c-0.114-19.718-0.114-39.331-0.114-58.94
		c-97.433-0.108-194.749,0-292.067-0.108c-0.104,19.719,0,39.332,0,59.05C1826.618,710.752,1864.469,710.86,1902.309,710.86z"/>
	<path fill="#1C558E" d="M2190.463,1009.609c-0.965-119.162-0.218-238.319-0.436-357.379c-21.731-0.316-43.357-0.42-64.986-0.42
		c-0.104,119.584,0,239.061-0.104,358.642C2146.67,1010.665,2168.514,1010.452,2190.463,1009.609z"/>
	<path fill="#1C558E" d="M2420.711,945.789c-47.914,28.196-105.27,6.568-151.07-15.059c-8.582,17.707-17.383,35.412-25.965,53.219
		c62.76,36.261,145.449,45.268,211.283,11.874c55.863-26.818,72.408-111.102,27.672-155.206
		c-40.282-36.893-98.59-39.967-143.23-69.225c-20.885-13.464-19.92-49.617,4.349-58.731c47.603-16.964,98.807-0.954,143.438,17.6
		c-0.319-21.203-0.426-42.407-0.528-63.506c-56.827-20.354-122.972-28.62-179.166-2.438
		c-54.271,25.229-68.164,103.788-29.361,147.891c38.479,38.695,97.108,40.921,141.947,68.802
		C2442.979,893.945,2444.357,933.064,2420.711,945.789z"/>
	<path fill="#1C558E" d="M2625.326,1009.075c-1.273-50.885-0.537-101.878-0.642-152.768c56.931-0.316,114.067,0,171.111-0.104
		c0,51.418,0.207,102.835,0,154.144c21.203,0.212,42.405,0.212,63.713,0.104c-0.104-119.581,0-239.059,0-358.641
		c-21.308,0-42.51,0-63.608,0c0,48.446-0.104,96.894,0,145.345c-57.033-0.109-114.067,0.314-171.111-0.321
		c-0.209-48.13-0.209-96.365,0-144.495c-21.723-0.317-43.462-0.638-64.978-0.638c-0.435,119.588,0,239.169-0.217,358.75
		C2581.43,1010.876,2603.377,1010.452,2625.326,1009.075z"/>
	<path fill="#1C558E" d="M403.271,1181.244c-41.134-93.61-157.856-142.271-253.797-107.606
		c-118.525,35.94-177.045,189.023-112.691,294.935c54.487,103.042,201.954,135.167,296.094,67.957
		C414.825,1383.52,444.404,1268.811,403.271,1181.244z"/>
	<path fill="#1C558E" d="M664.807,1471.086c88.1,6.253,173.649-54.705,200.579-137.922c24.914-73.046,4.984-159.871-51.631-212.986
		c-51.521-50.78-130.819-69.546-200.153-49.719c-94.987,24.593-161.985,124.779-147.57,221.992
		C475.467,1390.41,565.896,1473.313,664.807,1471.086z"/>
	<path fill="#1C558E" d="M1292.411,1417.338c-6.259-18.977-13.251-37.637-20.778-56.081
		c-46.225,20.354-108.136,28.196-147.148-10.71c-50.461-53.219-48.659-150.111,6.894-199.091
		c39.331-33.606,96.153-24.914,140.044-5.622c7.739-18.23,14.842-36.681,21.204-55.446c-66.259-27.77-150.438-33.18-209.063,14.212
		c-80.463,68.587-85.234,205.133-18.024,284.325C1123.105,1450.623,1219.471,1447.129,1292.411,1417.338z"/>
	<path fill="#1C558E" d="M1329.941,1366.662c57.351,90.219,204.601,95.835,270.756,12.722
		c52.054-66.791,54.496-167.606,10.496-239.063c-38.904-61.59-120.539-83.113-188.49-65.198
		C1300.255,1105.549,1266.965,1269.659,1329.941,1366.662z M1439.661,1133.114c47.179-18.025,103.151,9.964,120.866,56.397
		c24.267,56.719,15.901,135.275-36.588,173.334c-46.002,32.756-117.034,13.464-140.25-37.845
		C1351.146,1260.969,1365.24,1160.254,1439.661,1133.114z"/>
	<path fill="#1C558E" d="M2404.178,1385.747c57.033,64.24,155.635,62.547,229.523,31.481c-6.471-18.551-12.828-36.994-18.771-55.548
		c-46.649,17.382-107.392,29.044-146.93-9.437c-59.053-58.096-49.404-175.771,26.919-215c39.02-17.067,81.85-4.663,120.331,7.847
		c6.254-18.551,11.772-37.419,17.603-56.184c-69.873-27.25-159.447-31.806-217.111,23.428
		C2345.766,1183.26,2342.37,1308.777,2404.178,1385.747z"/>
	<path fill="#1C558E" d="M1679.678,1072.896c0.529,79.51-0.631,158.916,0.323,238.318c0,43.782,21.099,91.278,62.759,109.938
		c49.301,22.901,108.457,22.052,158.814,2.967c44.516-18.128,69.861-65.834,69.541-112.692c2.328-79.51,0.104-159.021,0.951-238.531
		c-21.938-0.212-43.887,0.108-65.629,1.273c1.067,68.696,0.323,137.395,0.748,206.091c-0.953,26.291,0.319,57.144-20.148,77.073
		c-22.155,24.593-58.824,21.094-88.621,18.236c-34.35-5.302-56.193-41.138-53.432-74.422c-0.526-75.483-0.961-150.968,0.632-226.342
		C1723.669,1072.793,1701.617,1072.369,1679.678,1072.896z"/>
	<path fill="#1C558E" d="M2022,1073.005c0,119.581-0.105,239.164,0,358.642c22.152,0,44.309-0.104,66.568-0.104
		c-0.84-84.072,2.34-168.246-2.537-252.1c60.006,80.675,113.115,166.549,172.801,247.54c17.807,9.752,40.294,2.97,60.007,4.875
		c0-119.69,0-239.272,0-358.962c-21.308,0-42.511,0-63.608,0c-0.321,77.921,0.642,155.843-0.527,233.765
		c-57.355-74.106-104.845-155.418-161.248-230.162C2070.656,1068.548,2045.645,1073.85,2022,1073.005z"/>
	<path fill="#1C558E" d="M2676.314,1072.896c0,119.586-0.207,239.271,0.113,358.857c21.616,0,43.358-0.321,65.088-0.739
		c-0.218-119.054-0.849-238.004,0.321-356.954C2719.994,1073.005,2698.045,1072.684,2676.314,1072.896z"/>
	<path fill="#1C558E" d="M2859.51,1072.896c-21.308-0.104-42.51-0.104-63.608,0c0,119.586-0.104,239.168,0,358.75
		c67.108-0.632,134.319,1.697,201.428-1.27v-57.882c-45.803,0.104-91.604,0.104-137.291,0.526
		C2859.084,1272.946,2859.717,1172.869,2859.51,1072.896z"/>
	<path fill="#BF003B" d="M2812.279,1970.407c-60.223-48.97-138.459-65.191-210.021-90.526
		c-55.657-20.042-115.871-30.851-166.227-63.4c-29.154-17.808-37.105-63.08-11.99-87.668
		c39.758-42.198,106.337-41.143,158.504-27.043c45.471,12.404,71.229,57.563,75.473,102.103
		c66.156,2.649,132.519,0.517,198.776,1.055c1.388-66.154-20.561-133.687-67.313-181.393
		c-64.884-66.26-161.258-90.848-251.576-89.264c-88.941-1.698-184.676,16.327-253.046,77.077
		c-68.91,57.873-93.405,158.699-68.175,243.729c20.354,67.843,77.813,118.2,140.364,147.354
		c81.415,37.426,168.773,59.154,253.904,86.291c26.606,9.226,59.789,19.607,66.363,51.103c15.262,38.265-17.29,78.351-53.433,88.735
		c-58.422,16.637-127.217,18.127-179.375-16.969c-36.68-24.382-48.336-70.711-51.102-112.166
		c-68.381,0.953-136.969-2.959-205.246,2.236c8.902,65.09,21.1,132.829,62.655,185.939
		c56.507,75.38,154.569,104.107,245.104,105.808c105.591,3.925,220.509-7.424,306.168-75.163
		C2907.153,2236.51,2914.256,2057.455,2812.279,1970.407z"/>
	<path fill="#BF003B" d="M57.075,1555.896v816.309c69.862-0.104,139.723,0.311,209.59-0.313
		c-0.109-271.722-0.958-543.435,0.424-815.25C197.119,1555.047,127.045,1556.207,57.075,1555.896z"/>
	<path fill="#BF003B" d="M563.292,2202.582c-0.212-54.384,0.424-108.871-0.424-163.265c140.571-2.436,281.147-0.415,421.727-0.953
		c0.104-55.763,0.104-111.419,0.104-167.075c-140.044,0.311-280.087-0.85-420.028,0.642c-2.857-48.772-0.85-97.648-1.377-146.411
		c140.468,0,280.936,0,421.405,0c0-56.506,0-113.114,0-169.621c-211.179,0-422.255,0-633.434,0c0,272.033-0.103,544.171,0,816.308
		c212.132-0.208,424.268,0.424,636.296-0.312c-0.425-56.299-0.528-112.599,0.103-168.889
		C846.243,2202.055,704.822,2202.893,563.292,2202.582z"/>
	<path fill="#BF003B" d="M1276.234,1555.896c-70.709,0-141.316,0-212.026,0c0,272.138,0,544.172,0,816.309
		c198.776,0,397.552,0,596.327,0c0-60.109,0-120.219,0-180.225c-128.063,0-256.233,0-384.3,0
		C1276.234,1979.953,1276.339,1767.925,1276.234,1555.896z"/>
	<path fill="#BF003B" d="M1504.27,1555.794c-0.633,55.118,1.17,110.146-1.377,165.272c78.134,4.026,156.269,0.745,234.4,1.698
		c-0.424,216.056,1.264,432.009-0.953,647.948c70.918,3.293,141.951,0.538,212.98,1.491c1.16-216.688-2.02-433.499,1.596-650.081
		c78.122,1.593,156.257,0.435,234.39,0.642c0.104-55.45-0.425-110.901,0.425-166.227
		C1958.648,1555.047,1731.454,1556.321,1504.27,1555.794z"/>
	<path fill="#BF003B" d="M2996.52,1552.088c-7.95,0.848-24.059,2.535-32.012,3.386c-4.027,18.552-9.006,37-15.693,54.809
		c-5.611-18.979-8.688-38.793-17.485-56.609c-38.907,3.28-77.823-2.434-116.73-0.735l0.114,18.117
		c7.206,0.538,21.42,1.698,28.521,2.236c3.064,25.54,1.584,51.516,2.216,77.274c5.196,0,15.696-0.104,20.893-0.207
		c0.208-25.553,0.104-51.103,0.104-76.654c8.262-0.951,25.014-2.961,33.397-3.912c-0.217,25.758-1.696,51.618,0.852,77.377
		c5.196,1.389,15.581,4.348,20.768,5.736c0.643-21.639,1.065-43.255,1.489-64.894c6.461,24.185,7.631,51.849,27.777,69.76
		c15.271-20.563,20.779-45.906,27.457-70.068c-0.851,21.947-1.067,43.896,0,65.946l16.223-5.632
		C2999.709,1616.328,2996.105,1583.996,2996.52,1552.088z"/>
</g>
</svg>
