<svg xmlns="http://www.w3.org/2000/svg" width="3000" height="3000" xmlns:v="https://vecta.io/nano"><path fill="#265366" d="M282.798 198.952l2434.403.133-217.557 2433.169-971.64 277.82c-19.13 7.014-38.258 6.877-57.522 0L500.22 2632.107 282.798 198.952zm158.664 142l187.556 2175.571c276.316 87.777 557.994 159.066 835.686 242.732 40.18 16.785 80.225-4.957 119.169-14.311l786.832-228.703c20.779-311 55.041-620.885 79.265-931.604L2558.401 340.95l-2116.939.002z"/><path d="M842.585 769.886c3.165 95.758 16.374 190.713 20.088 286.488l637.327.675V770.354c-219.137.036-438.275-.063-657.415-.468zm329.845 574.077c5.229 95.788 1.098 192.516 15.408 287.605l312.162-1.496v-286.414c-109.168-.106-218.353-.242-327.57.305zm33.024 606.305c-.827-59.033-4.131-118.068-5.367-177.098-95.5-1.24-190.998 0-286.497-1.791 3.165 131.693 17.06 262.688 20.226 394.383l565.706 185.219.478-.15v-300.818c-99.325-29.304-196.457-66.452-294.546-99.745z" fill="#24c9fc"/><path fill="#3c809e" d="M2152.052 770.02l-652.052.335v286.695l350.003-.125c-4.954 95.492-15.688 190.58-18.578 286.221l-331.425.513v286.414l313.538.662c-3.309 106.646-14.587 212.889-19.131 319.4-98.113 33.166-194.986 71.008-294.343 99.896a.68.68 0 0 1-.064-.02v300.818l562.884-182.732 89.168-1398.077z"/></svg>