<svg xmlns="http://www.w3.org/2000/svg" width="3000" height="3000" xmlns:v="https://vecta.io/nano"><path fill="#23c979" d="M2566.48 362.083c19.584-19.146 38.293-39.229 58.473-57.784l148.082 148.49-724.771 724.99-191.594 192.218-496.351-495.633 148.146-148.771 343.396 342.363 5.061 3.719 709.558-709.592z"/><path fill="#6b6b6b" d="M353.127 488.21c58.16-68.062 146.491-109.29 236.135-109.509l1621.081-.03c43.666.717 88.083-3.188 130.968 7.309 13.618 2.748 26.769 7.403 40.23 10.869L2190.32 589.098l-1601.31.157c-23.207.812-46.166 9.183-64.001 24.112-23.643 19.24-37.947 49.257-38.418 79.711v1661.781c.156 17.211-1.28 34.762 3.562 51.568 10.995 44.289 53.598 77.772 99.17 78.367l1692.641-.064c53.349-1.246 100.044-48.414 100.794-101.76l.063-1386.979c-.749-4.122 3.343-6.402 5.591-9.09L2593.5 782.095l-.03 1594.875c.187 39.479-6.902 78.993-21.146 115.818-32.017 83.587-101.17 152.021-185.253 182.817-21.553 8.4-44.26 13.336-67.063 17.084-30.142 3.75-60.501 2.529-90.799 2.719H608.064c-80.304 3.435-161.606-23.769-222.173-76.866-68.872-58.599-110.289-148.022-109.978-238.479v-1686.8c.158-74.648 27.957-148.893 77.214-205.053z"/><path d="M851.758 1455.332c51.505-23.707 110.508-29.237 165.919-18.274 59.472 10.587 115.099 43.073 152.112 90.986 34.951 44.418 53.88 100.701 54.287 157.079h-210.305c-1.155-10.057-3.498-20.613-10.713-28.175-12.214-12.866-31.485-15.521-48.321-14.179-26.237 2.403-47.882 27.142-46.82 53.41.313 26.458 23.239 50.385 49.758 51.382 54.349-.53 108.884 16.084 153.361 47.479 50.444 35.014 88.083 88.207 103.888 147.584 13.118 48.819 11.713 101.201-2.781 149.518-16.865 56.224-53.566 106.546-102.854 138.593-49.915 33.326-111.479 47.162-170.949 42.603-43.195-2.093-86.551-12.368-124.625-33.263-45.979-24.866-82.085-67.094-99.608-116.319-11.464-32.046-17.43-66.313-16.555-100.359l210.334.189c.063 12.618-1.375 31.174 13.808 35.889 20.177 5.088 42.414 6.528 62.469.22 27.768-9.498 35.544-46.229 24.236-70.717-8.619-19.24-29.484-31.796-50.476-30.796-58.157-.283-115.787-20.992-161.171-57.287-42.854-34.172-74.963-81.835-89.611-134.715-14.961-52.037-12.838-108.571 5.435-159.485 23.394-66.499 75.089-122.256 139.182-151.363zm737.482 192.124c55.941-10.277 114.662-4.844 167.794 15.397 52.754 20.021 99.98 54.409 135.12 98.577 44.572 55.223 69.342 125.872 69.279 196.811-140.558.061-281.082-.031-421.605.061.313 30.516 14.086 60.786 37.637 80.338 18.678 15.771 42.947 24.8 67.404 24.957l296.637-.032c-31.642 93.048-110.509 168.354-204.523 196.813-52.069 16.178-108.354 17.959-161.455 5.868-109.008-23.769-201.243-110.009-232.697-217.018-16.896-55.628-17.865-116.035-2.778-172.196 15.272-57.724 47.663-110.604 91.486-151.053 43.852-40.2 99.012-68.216 157.701-78.523z" fill="#395b50"/></svg>