<?xml version="1.0" encoding="utf-8"?>
<!-- Generator: Adobe Illustrator 16.0.0, SVG Export Plug-In . SVG Version: 6.00 Build 0)  -->
<!DOCTYPE svg PUBLIC "-//W3C//DTD SVG 1.1//EN" "http://www.w3.org/Graphics/SVG/1.1/DTD/svg11.dtd">
<svg version="1.1" id="Layer_1" xmlns:v="https://vecta.io/nano"
	 xmlns="http://www.w3.org/2000/svg" xmlns:xlink="http://www.w3.org/1999/xlink" x="0px" y="0px" width="3000px" height="3000px"
	 viewBox="0 0 3000 3000" enable-background="new 0 0 3000 3000" xml:space="preserve">
<rect x="475.332" y="962.903" fill="#F7F7F7" width="2059.995" height="1105.434"/>
<g>
	<path fill="#005D96" d="M1445.366,260.484c33.84-21.965,75.311-11.995,106.802,9.188
		c337.683,196.803,677.374,390.243,1014.042,588.725c-148.278,89.435-295.538,180.774-445.94,266.625c0-30.712,0-61.531,0-92.352
		c-50.772-0.109-101.424,0-152.196,0c-0.109,62.197,0,124.287,0,186.496c-41.47,24.987-83.037,49.755-125.296,73.396
		c-15.136-80.246-50.323-162.047-119.472-209.908c-79.908-65.339-190.75-72.063-288.813-56.146
		c-113.419,19.946-206.214,112.632-233.001,223.808c-34.295,137.629-32.392,287.363,14.791,421.73
		c-54.69,29.815-105.123,67.805-163.847,89.89c39.899-70.046,50.433-155.338,31.712-233.341
		c-17.369-66.796-74.976-114.087-135.943-140.88c-67.469-27.679-140.202-42.028-204.983-76.087
		c-43.708-21.298-60.852-84.285-30.372-123.061c34.071-45.946,101.988-48.081,151.523-30.142
		c44.496,17.928,56.935,69.148,59.852,112.292c51.55,0.219,102.995,0.219,154.543,0c0.115-74.194-20.281-153.772-82.593-200.167
		c-78.118-56.262-183.133-59.512-274.582-41.016c-78.002,14.011-149.843,69.708-172.258,147.256
		c-20.395,81.603-8.52,178.879,56.711,237.718c72.398,63.326,172.482,74.304,256.981,114.537
		c32.505,17.258,66.687,43.591,71.282,82.817c9.862,44.392-15.354,95.493-59.959,108.833
		c-54.018,15.795-122.947,14.908-162.283-31.171c-28.467-28.236-29.25-70.593-30.935-107.914c-52.447,0.329-104.899,0-157.352,0.439
		c-1.905,65.448,7.847,136.392,55.703,185.15c75.983,92.461,207.895,108.265,319.077,88.094
		c-47.971,40.451-104.233,68.689-157.353,101.424c-108.488,66.008-218.542,129.443-325.686,197.694
		c-7.847-11.207-18.606-21.408-20.401-35.636c1.795-408.391,0.897-816.911,0.449-1225.301c5.719-24.095,25.89-41.469,46.739-53.01
		C776.958,647.696,1110.486,452.914,1445.366,260.484z"/>
	<path fill="#005D96" d="M1433.71,1167.606c54.69-25.993,123.392-25.993,175.951,5.046c66.791,46.953,84.389,134.488,88.768,211.035
		c-71.281,37.54-138.86,81.363-207.79,122.941c-47.293,28.248-97.278,52.678-138.972,89.21l-0.897,0.788
		c-17.926-79.129-17.259-160.941-11.989-241.417C1345.73,1284.834,1369.936,1206.494,1433.71,1167.606z"/>
</g>
<g>
	<path fill="#3C6EA0" d="M2120.27,1125.021c150.402-85.851,297.662-177.19,445.94-266.625
		c13.222,21.403,26.223,44.606,24.658,70.605c0.23,381.05-0.339,762.1,0.23,1143.15c2.014,29.244-5.835,58.619-24.778,81.362
		c-167.104-102.432-337.446-199.72-502.756-305.183c133.81-0.776,267.511-0.109,401.331-0.438c0.12-47.63,0.12-95.262-0.23-142.894
		c-114.755,0.109-229.52,0.219-344.276,0C2120.159,1511.674,2120.389,1318.347,2120.27,1125.021z"/>
	<path fill="#3C6EA0" d="M1842.777,1292.562c42.259-23.64,83.826-48.408,125.296-73.396c0,191.423,0,382.725,0,574.147
		c-54.133-32.385-108.255-64.78-162.168-97.396C1864.963,1571.071,1864.175,1426.382,1842.777,1292.562z"/>
	<path fill="#3C6EA0" d="M1490.639,1506.629c68.929-41.578,136.508-85.401,207.79-122.941
		c2.802,78.342,3.589,158.468-21.517,233.669C1614.033,1581.72,1552.951,1543.163,1490.639,1506.629z"/>
</g>
<g>
	<path fill="#004766" d="M390.862,939.874c0.115-15.579,2.019-31.044,4.706-46.398c0.448,408.39,1.346,816.91-0.449,1225.301
		c-2.353-15.475-4.033-31.161-4.142-46.844C391.086,1694.582,391.201,1317.232,390.862,939.874z"/>
	<path fill="#004766" d="M1351.667,1595.839c41.694-36.532,91.679-60.962,138.972-89.21
		c62.312,36.534,123.394,75.091,186.273,110.728c-18.168,38.219-41.701,77.445-81.484,96.052
		c-51.44,21.516-112.297,21.297-162.391-3.591C1391.682,1684.94,1366.016,1640.777,1351.667,1595.839z"/>
	<path fill="#004766" d="M1052.435,1761.936c58.724-22.085,109.157-60.074,163.847-89.89
		c47.855,126.313,183.915,199.162,315.601,190.525c39.899,44.271,78.343,89.78,118.017,134.15c61.969-0.33,123.949,0,185.929-0.33
		c-51.658-55.928-104.116-111.175-155.787-167.212c52.339-32.954,97.628-77.894,125.864-133.263
		c53.913,32.616,108.035,65.012,162.168,97.396c0,18.158,0,36.424,0,54.581c31.838,0,63.664,0.221,95.491,0.438
		c165.31,105.463,335.651,202.751,502.756,305.183c-345.064,196.697-687.566,398.08-1032.084,595.895
		c-26.672,15.124-60.633,15.244-87.416,0.23C1102.53,2552.273,760.479,2350.65,415.52,2154.412
		c107.144-68.251,217.198-131.687,325.686-197.694c53.12-32.734,109.382-60.973,157.353-101.424
		C958.738,1841.394,1011.414,1807.553,1052.435,1761.936z"/>
</g>
</svg>
