<svg xmlns="http://www.w3.org/2000/svg" width="3000" height="3000" xmlns:v="https://vecta.io/nano"><path d="M856.832 282.042c-13.978-68.62 82.53-115.568 124.751-62.405 30.448 41.936 48.162 92.262 72.826 137.947 17.028 37.351 45.46 77.531 28.933 120.737-17.702 35.907-43.893 66.143-66.524 98.501l176.32.347 95.816-136.719c-24.505-51.912-53.273-101.891-71.994-156.463-13.267-68.446 78.284-117.008 123.745-67.2 32.477 46.061 51.214 100.825 77.598 150.776 12.77 31.1 35.225 62.042 30.642 97.602-16.691 42.137-47.153 76.269-72.685 112.731l783.445.355c39.477-1.969 66.367 32.698 83.047 65.965l267.186 484.821c27.055 46.242 1.059 112.909-48.645 127.134-43.072 17.235-88.691-11.916-107.076-52.814l-247.955-448.568c-133.631 1.587-267.232-1.609-400.656 1.785l338.854 611.067c16.711 32.011 38.295 72.187 15.35 107.206l-353.518 643.079 400.971-.17 283.705-509.93c32.887-56.885 123.898-48.166 147.084 13.332 20.771 41.445-4.783 82.51-24.025 117.926l-287.629 517.68c-18.555 38.24-63.678 39.85-99.207 39.488-408.322-.531-816.634-.332-1224.761 0-36.581 1.625-79.993-4.977-98.366-42.855l-417.842-752.406c-19.917-32.003-32.181-73.967-9.522-108.279l380.559-690.016c48.85-91.923 109.953-175.669 171.726-258.152-23.149-54.393-57.016-104.711-72.153-162.502m67.558 473.637l-376.135 683.606 376.3 677.23 400.646.879-341.405-618.537c-17.868-31.303-32.351-72.37-9.211-105.26l350.951-638.281c-60.582.182-121.179.182-181.753-.336l-358.78 620.136c-6.819 20.431-33.878 40.347-24.004 63.112 91.563 187.211 203.556 363.397 289.346 553.618-97.021-191.469-210.375-373.166-314.708-560.377l386.19-675.97c-65.878-.183-131.741-.183-197.437.18m592.297 13.516l-370.196 667.06 371.036 665.841 366.791-664.23-367.631-668.671zm941.722 542.27c59.729-28.275 136.32 25.591 132.064 94.402 1.527 70.939-79.84 124.979-140.086 89.265-70.806-34.153-66.718-157.02 8.022-183.667zM221.139 2318.553l74.103-.336-.336 153.009c46.936-54.718 135.31-54.718 184.812-3.799 64.005 60.343 65.716 177.448 2.372 238.923-49.074 52.614-139.393 54.642-186.966-1.004l-.319 31.063c-24.366 2.691-48.963 1.567-73.439 1.469l-.227-419.325m117.483 193.278c-56.277 26.82-58.524 122.738-2.581 151.215 47.035 28.725 116.3-6.843 117.473-65.51 11.715-64.401-60.778-115.646-114.892-85.705zm2382.869-193.278l74.185-.445-.217 420.094c-26.095-.098-52.186-.671-78.17-2.238l8.802-34.877c-45.735 54.733-132.396 61.246-184.163 12.222-73.229-61.801-71.301-193.504 3.338-253.191 50.355-44.759 131.753-39.375 176.954 10.78-1.813-50.828-1.065-101.528-.729-152.345m-108.481 190.476c-61.74 20.534-68.198 121.718-11.479 152.682 47.565 30.612 119.084-4.603 119.505-65.072 10.104-60.904-54.221-111.948-108.026-87.61zm-1983.382-53.056c63.037-43.75 159.257-33.204 203.494 34.326 28.02 36.238 31.894 84.692 27.918 129.457-73.23.445-146.576-1.241-219.806 1.007 20.827 65.163 106.736 71.232 149.798 26.937l58.634 35.2c-57.242 82.687-189.107 85.606-250.966 7.639-54.551-68.31-41.443-185.198 30.928-234.566m10.197 103.203l150.343-.107c-9.877-22.228-21.37-46.786-45.854-54.188-42.308-18.407-92.13 8.743-104.489 54.295zm303.696-88.621c59.061-58.77 167.195-54.609 217.231 14.824 30.504 36.781 35.333 87.709 31.795 134.377-73.346.226-146.802-.782-220.143.659 21.045 64.729 107.27 72.361 150.114 27.041l58.533 36.013c-53.365 75.159-167.311 83.793-234.422 24.793-65.823-58.449-67.226-177.342-3.108-237.707m26.517 87.507c50.477 2.693 101.052 1.561 151.518 1.217-10.84-35.1-41.342-64.594-78.604-59.554-34.679-1.002-59.806 27.48-72.914 58.337zm312.28-93.236c67.967-60.441 183.194-40.371 227.23 41.521l-62.288 38.692c-23.736-33.536-69.591-51.932-105.988-29.395-48.118 25.697-53.267 105.008-9.676 137.766 35.768 29.27 91.29 17.146 115.337-22.226l63.353 37.705c-43.917 81.192-157.092 103.298-225.937 44.294-74.312-57.869-75.806-189.23-2.031-248.357zm549.916-27.347c89.009-34.008 196.177 37.234 200.045 136.951 11.704 90.309-66.03 176.332-152.59 172.081-82.151 3.263-155.811-76.174-150.871-161.878-.861-65.735 43.7-127.763 103.416-147.154m10.303 77.394c-48.548 26.799-53.594 108.47-7.956 140.76 45.537 37.479 122.536 2.7 123.62-59.211 9.867-64.041-62.516-113.647-115.664-81.549zm-292.299-76.071l75.057-.773-1.408 46.118c19.124-32.434 51.563-51.173 87.743-54.097l.319 85.82c-33.287 2.03-77.313 13.132-84.087 53.618-6.548 55.424-1.811 111.623-2.031 167.371-25.234.896-50.354 1.116-75.593.896v-298.953zm495.799-.664l78.275.336 49.52 181.843 51.414-181.843 70.766-.099 50.909 182.724c18.901-60.244 32.642-122.171 49.604-183.07l71.302.237-84.079 299.936-72.686-.226-53.275-177.682c-21.146 58.323-35.86 119.035-55.296 178.026l-72.702-.443-83.752-299.739z" fill="#622b7e"/><path d="M924.39 755.679l197.436-.181-386.19 675.97c104.333 187.211 217.688 368.909 314.708 560.377-85.79-190.221-197.783-366.406-289.346-553.618-9.874-22.765 17.186-42.681 24.004-63.112l358.78-620.136 181.753.336-350.951 638.281c-23.14 32.89-8.657 73.957 9.211 105.26l341.405 618.537c-133.606-.879-267.039.193-400.646-.879l-376.3-677.23L924.39 755.679zm592.297 13.516l-370.196 667.06 371.036 665.841 366.791-664.23-367.631-668.671zM1510.285 1839L1317 1449l198.404-434 213.179 434-218.298 390z" fill="#fbe90c"/></svg>