<?xml version="1.0" encoding="utf-8"?>
<!-- Generator: Adobe Illustrator 16.0.0, SVG Export Plug-In . SVG Version: 6.00 Build 0)  -->
<!DOCTYPE svg PUBLIC "-//W3C//DTD SVG 1.1//EN" "http://www.w3.org/Graphics/SVG/1.1/DTD/svg11.dtd">
<svg version="1.1" id="Layer_1" xmlns:v="https://vecta.io/nano"
	 xmlns="http://www.w3.org/2000/svg" xmlns:xlink="http://www.w3.org/1999/xlink" x="0px" y="0px" width="3000px" height="3000px"
	 viewBox="0 0 3000 3000" enable-background="new 0 0 3000 3000" xml:space="preserve">
<g id="_x23_3399dbff">
	<path fill="#3399DB" d="M1427.955,120.775c127.797-1.717,256.023,0.793,382.769,11.356
		c170.768,13.581,342.005,37.506,496.104,85.198c84.67,27.225,167.398,63.111,212.838,115.563
		c19.252,22.305,30.19,47.342,30.452,72.533c0.052,331.142,0.052,662.313,0,993.449c0.209,43.791-33.766,85.259-82.411,116.897
		c-60.953,39.472-139.843,66.918-220.836,88.685c-171.347,44.233-356.735,64.858-541.601,74.728
		c-220.988,10.727-444.718,5.015-662.343-21.133c-111.658-13.771-221.94-33.286-325.077-62.826
		c-84.621-25.037-166.662-57.748-221.093-105.155c-30.19-26.747-49.438-58.637-47.754-91.286
		c-0.051-331.109-0.051-662.216,0.051-993.291c-2.157-44.965,34.709-87.609,85.674-119.212
		c54.91-35.254,124.798-60.477,196.743-81.04c127.012-34.935,263.702-55.402,401.182-68.568
		C1230.472,127.945,1329.031,121.6,1427.955,120.775 M1330.501,237.793c-132.688,5.776-265.069,18.407-392.497,41.758
		c-76.52,14.818-152.78,32.494-219.096,60.351c-32.505,14.125-65.639,30.813-78.889,54.45c-7.733,12.727,2.362,26.054,13.724,36.714
		c28.978,25.036,72.84,41.979,116.278,56.637c120.599,38.365,254.601,58.261,388.346,71.459
		c78.52,6.854,157.565,12.69,236.979,13.455c55.91,3.237,112.181,2.822,168.296,1.806c41.921-2.98,84.359-1.267,126.223-4.66
		c164.981-8.505,330.756-26.308,483.639-65.938c61.062-16.659,122.856-36.298,165.665-68.283
		c16.671-12.311,29.35-29.604,17.253-45.154c-17.463-23.667-52.224-40.518-87.04-54.636
		c-74.472-29.319-158.988-47.788-244.029-62.383C1799.625,236.461,1563.066,228.371,1330.501,237.793 M637.334,573.186
		c-0.837,55.178-0.106,110.392-0.421,165.571c-0.683,23.226,26.877,42.012,54.22,56.354
		c58.438,29.224,128.698,48.228,199.594,63.618c82.095,17.896,167.506,29.731,253.542,38.331
		c206.271,20.117,417.062,21.703,624.535,7.395c148.572-11.583,297.834-30.146,433.681-69.457
		c35.552-10.158,69.475-22.596,100.027-37.568c31.767-16.119,64.74-37.792,58.854-64.954c-0.582-53.087,0.312-106.171-0.479-159.224
		c-130.74,47.026-278.21,74.535-427.098,91.51c-108.184,12.755-218.154,19.736-328.279,21.927
		c-57.646,2.35-115.601,3.837-173.299,1.205c-163.241-2.791-326.808-13.992-485.005-39.059
		C838.921,632.11,733.525,607.804,637.334,573.186 M637.174,912.482c-0.574,52.101,0.16,104.201-0.42,156.303
		c-0.052,11.263,0.42,23.132,9.783,33.252c15.043,16.438,38.607,29.32,62.952,40.679c53.753,23.956,115.44,40.39,177.92,54.196
		c137.213,29.477,282.108,44.168,426.892,51.211c88.041,5.554,176.713,3.332,265.067,3.556c42.335,0.38,84.409-2.854,126.59-4.507
		c136.947-7.836,273.743-22.115,403.699-49.879c72.417-16.15,144.941-35.412,203.426-66.508
		c24.139-13.738,49.597-31.032,48.228-52.389c-0.365-55.306,0.209-110.642-0.365-165.947
		c-65.269,23.193-134.219,42.706-206.215,57.019c-257.39,51.751-532.291,63.777-801.827,55.972
		c-165.398-6.538-331.117-21.037-489.21-52.005C784.484,958.614,708.754,937.674,637.174,912.482 M637.072,1250.884
		c-0.16,48.293-0.16,96.62-0.051,144.914c0.842,30.62,44.07,52.038,81.832,68.601c66.371,27.831,142.527,45.693,219.15,60.386
		c186.812,34.617,383.4,44.962,577.991,45.912c190.385-2.349,382.347-14.184,564.264-49.626
		c80.466-16.815,161.933-36.271,227.513-69.964c26.349-14.279,55.063-32.238,53.486-55.212c-0.158-48.326,0-96.62-0.104-144.945
		c-104.559,38.711-221.627,63.174-340.223,80.787c-120.7,17.513-244.082,27.226-367.832,32.234
		c-89.19,3.27-178.813,1.875-268.171,1.397c-109.229-3.712-218.359-10.343-325.854-23.066
		C911.969,1325.039,765.871,1298.1,637.072,1250.884z"/>
	<path fill="#3399DB" d="M1417.843,1837.609c85.751-26.646,178.33-28.799,266.006-10.501
		c79.697,16.554,154.946,56.217,211.671,114.865c63.006,61.815,105.055,143.345,123.348,229.417
		c12.89,57.362,13.852,116.471,11.515,174.984c-6.282,95.011-43.976,186.996-103.638,260.915
		c-46.679,60.575-109.271,109.229-180.895,136.56c-23.435,9.678-48.288,14.946-72.362,22.56c1.33,27.838-1.101,55.764,1.831,83.504
		c1.058,9.995-0.545,19.993-2.197,29.806c-56.77-0.779-113.537-0.365-170.306-0.184c-0.872-147.885-0.602-295.769-0.141-443.606
		c53.742,0.186,107.483,0.278,161.229-0.045c2.338,41.499-2.709,83.362,3.072,124.634c46.591-9.627,85.244-40.765,111.885-79.189
		c37.052-54.292,61.31-119.225,59.154-185.626c2.065-72.172-25.176-143.067-69.194-199.608
		c-36.317-48.512-88.316-88.128-148.94-98.951c-56.263-8.531-116.381-2.064-166.226,26.871
		c-115.558,65.523-181.084,209.557-151.963,339.604c19.21,74.927,72.176,139.765,140.41,175.72
		c0.778,68.416,0.366,136.831,0.502,205.202c-155.13-46.36-284.944-174.022-328.598-330.62
		c-19.811-74.237-19.399-153.203-4.313-228.266C1141.748,2026.579,1263.311,1887.911,1417.843,1837.609z"/>
	<path fill="#3399DB" d="M599.184,1840.085c45.583-13.115,93.314-11.052,140.229-11.052c80.291,0.045,160.632,0,240.969,0.045
		c0.045,57.413-0.184,114.777,0.139,172.188c-84.559-2.384-169.575-13.757-254.041-3.208c-26.732,4.264-56.217,9.4-75.705,29.94
		c-10.547,10.456-14.214,27.837-6.006,40.725c15.817,27.69,41.638,47.414,65.573,67.682
		c63.007,49.891,128.027,97.531,187.273,152.013c48.377,45.028,90.887,99.413,110.053,163.561
		c19.35,68.418,3.713,146.694-44.158,199.979c-55.304,61.031-137.844,93.453-219.421,95.473
		c-94.6,0.044-189.244-0.232-283.842,0.134c-0.736-61.582-1.743-123.259,0-184.841c100.559,3.806,202.13,20.084,302.231,2.02
		c20.819-4.68,45.306-9.172,58.237-27.976c9.996-16.873-1.791-35.858-11.603-49.8c-37.925-49.34-90.246-84.281-136.465-125.046
		c-59.706-51.587-122.206-102.718-164.622-170.261c-29.578-46.315-50.671-98.639-56.313-153.57
		c-7.657-44.48,0.229-93.364,29.762-128.714C511.235,1873.469,555.254,1852.923,599.184,1840.085z"/>
	<path fill="#3399DB" d="M2121.63,1829.033c64.292,0.228,128.627-0.412,192.959,0.316c-0.5,196.679-0.044,393.354-0.228,590.027
		c-0.323,35.538,9.582,74.009,36.866,98.539c20.638,18.438,48.472,26.46,75.617,28.158c40.858,5.455,82.128,3.667,123.216,4.219
		c-0.597,65.299,1.053,130.688-0.874,195.987c-75.935-0.323-151.874-0.14-227.81-0.185c-38.292-0.32-78.184-5.916-109.965-28.98
		c-57.406-41.455-91.203-112.715-89.873-183.194C2121.723,2298.958,2121.54,2063.993,2121.63,1829.033z"/>
</g>
</svg>
