<svg xmlns="http://www.w3.org/2000/svg" width="3000" height="3000" xmlns:v="https://vecta.io/nano"><linearGradient id="A" gradientUnits="userSpaceOnUse" x1="181.734" y1="3238.967" x2="181.734" y2="1973.601" gradientTransform="matrix(1.5 0 0 -1.5 1193.5 5606.5)"><stop offset="0" stop-color="#7ac3ed"/><stop offset="1" stop-color="#d1add2"/></linearGradient><path fill="url(#A)" d="M1178.41 2678.174l-.438-166.627-.121-74.813c-323.157 44.16-401.379-182.36-402.255-184.752-44.833-114.268-106.177-146.93-108.804-148.251l-5.97-3.484c-22.231-15.237-81.196-55.813-64.437-109.179 15.132-48.087 73.755-53.052 100.425-52.201 147.632 10.396 222.351 143.666 225.417 149.314 75.346 129.755 190.339 116.312 264.562 88.987 6.909-33.231 17.604-63.699 31.643-90.619-237.99-42.43-507.647-169.577-507.647-632.201 0-127.021 39.359-239.309 117.213-334.287-17.386-58.171-37.175-176.867 21.413-326.374l8.351-21.328 21.73-6.941c19.975-6.628 129.09-30.121 353.382 117.378 92.61-23.841 190.593-36.12 291.704-36.624 101.549.503 199.657 12.783 292.454 36.624C2041.133 735.267 2150 759.043 2170.037 765.417l21.666 7.006 8.35 21.229c58.838 149.448 39.049 268.173 21.669 326.408 77.69 94.694 117.05 207.017 117.05 334.287 0 462.722-269.904 589.518-508.426 631.355 27.011 51.386 41.678 115.9 41.678 187.104l-.722 405.367-96.045-.689.72-404.709c0-117.815-45.305-169.924-64.841-186.916l-83.075-72.209 109.209-12.221c249.966-27.857 505.428-114.768 505.428-547.116 0-112.445-37.302-210.41-110.925-291.222l-20.67-22.618 11.634-28.328c7.97-19.353 42.955-117.816-2.063-255.264-36.397 2.167-123.309 19.412-268.162 118.066l-18.447 12.504-21.352-5.94c-89.48-25.003-189.123-38.412-288.199-38.885-98.547.474-198.033 13.882-287.354 38.885l-21.386 5.94-18.383-12.504c-144.975-98.626-232.083-115.993-268.659-118.158-44.896 137.54-9.883 236.003-1.907 255.356l11.628 28.328-20.602 22.618c-73.79 81.096-111.115 179.095-111.115 291.222 0 432.159 254.991 519.57 504.426 548.094l108.142 12.344-82.008 71.896c-17.881 15.671-49.49 53.643-60.244 131.536l-3.596 26.511-24.294 10.934c-63.435 28.582-280.415 104.307-410.506-119.859-.721-1.227-26.104-45.606-72.131-75.132 31.015 30.845 68.818 80.725 99.302 158.583 3.187 9.142 65.187 174.731 349.601 112.855l57.933-12.654.593 191.908.409 166.155-95.953.69z"/><linearGradient id="B" gradientUnits="userSpaceOnUse" x1="213.797" y1="3592.761" x2="213.797" y2="1850.589" gradientTransform="matrix(1.5 0 0 -1.5 1193.5 5606.5)"><stop offset="0" stop-color="#456cb4"/><stop offset="1" stop-color="#9654a1"/></linearGradient><path fill="url(#B)" d="M1514.197 2774.315c-688.517 0-1248.592-562.661-1248.592-1254.353S825.68 265.603 1514.197 265.603s1248.589 562.662 1248.589 1254.359-560.075 1254.353-1248.589 1254.353zm0-2412.222c-635.49 0-1152.547 519.445-1152.547 1157.87 0 638.418 517.057 1157.863 1152.547 1157.863S2666.74 2158.381 2666.74 1519.963c0-638.425-517.056-1157.87-1152.543-1157.87z"/></svg>