<svg xmlns="http://www.w3.org/2000/svg" width="3000" height="3000" xmlns:v="https://vecta.io/nano"><path fill="#ffdd25" d="M369.076 199.206a92.04 92.04 0 0 1 26.462-3.236l2206.541.204c32.598-1.555 61.629 29.428 57.237 61.966L2460.79 2486.15c.065 26.594-18.287 51.709-44.615 57.576l-886.862 253.34c-17.205 4.926-35.438 10.463-53.053 4.187l-903.525-258.198c-25.656-6.21-42.73-31.326-42.73-57.18L331.675 264.152c-4.854-27.14 10.802-56.443 37.401-64.946zm80.595 110.233L640.17 2444.225l821.852 234.916c14.912 3.573 30.508 12.012 46.033 6.072l842.574-240.646L2541.056 309.44l-2091.385-.001z"/><path fill="#b79c00" d="M1098.512 710.139c-2.63-32.465 26.258-62.644 59.065-60.35h223.704c32.063-1.345 59.882 28.491 57.311 60.285v1465.627c4.049 37.463-34.964 71.281-71.418 59.402l-617.383-170.922c-27.206-4.988-49.409-29.564-48.13-57.777v-277.172c-1.213-24.971 15.927-49.137 39.895-56.165 15.058-5.128 30.984-.87 45.697 3.178l311.193 86.402.066-1052.508zm113.34 52.922v1068.441c4.112 36.112-31.523 70.207-67.504 61.09L815 1801.733l-.066 162.745 509.246 142.166c2.492-64.734.33-129.602 1.075-194.409V763.134l-113.403-.073z"/><path fill="#e6c62f" d="M1552.136 710.139c-2.638-31.925 25.313-61.833 57.509-60.35l675.571-.132c33.015-2.834 64.063 27.337 60.279 60.621l-19.104 224.172c-.468 29.03-25.513 55.288-54.938 55.148-126.643 1.49-253.414-1.477-379.982 1.425l.812 330.356 339.063-47.588c34.906-4.252 66.43 30.238 60.285 64.668l-56.771 661.867c-2.155 20.792-.942 44.549-15.998 61.161-10.127 12.684-26.191 17.681-41.175 21.8l-553.592 151.678c-33.686 11.272-72.303-17.211-71.689-52.579l-.336-257.462c-1.893-25.444 14.041-51.502 39.013-58.722l347.034-96.533c1.214-33.212 4.187-66.356 6.21-99.568l-327.931 56.165c-33.213 6.006-65.946-23.758-64.193-57.18l-.067-958.947zm113.339 52.922v840.012l329.479-56.704c33.211-7.767 68.648 20.995 67.027 55.214-3.507 72.164-9.241 144.328-14.041 216.419-1.009 25.513-21.121 47.45-45.895 52.446l-336.508 92.416v143.372l457.131-125.752 50.225-584.179-291.614 41.319c-18.022 2.294-36.046 6.474-54.272 5.129-27.338-3.579-49.078-29.435-47.932-56.976l.072-453.147c-.942-31.59 28.828-58.591 60.147-56.165l378.153.066 9.916-113.396-561.888-.074z"/></svg>