<?xml version="1.0" encoding="utf-8"?>
<!-- Generator: Adobe Illustrator 16.0.0, SVG Export Plug-In . SVG Version: 6.00 Build 0)  -->
<!DOCTYPE svg PUBLIC "-//W3C//DTD SVG 1.1//EN" "http://www.w3.org/Graphics/SVG/1.1/DTD/svg11.dtd">
<svg version="1.1" id="Layer_1" xmlns="http://www.w3.org/2000/svg" xmlns:xlink="http://www.w3.org/1999/xlink" x="0px" y="0px"
	 width="3000px" height="3000px" viewBox="0 0 3000 3000" enable-background="new 0 0 3000 3000" xml:space="preserve">
<g>
	<path fill="#FFDD25" d="M369.076,199.206c8.636-2.36,17.484-3.441,26.462-3.236c735.506,0.271,1471.092-0.205,2206.541,0.204
		c32.598-1.555,61.629,29.428,57.237,61.966c-65.748,742.666-132.573,1485.267-198.526,2228.01
		c0.065,26.594-18.287,51.709-44.615,57.576c-295.458,84.919-591.323,168.691-886.862,253.34
		c-17.205,4.926-35.438,10.463-53.053,4.187c-301.127-86.197-602.333-172.264-903.525-258.198
		c-25.656-6.21-42.73-31.326-42.73-57.18c-66.02-740.57-132.172-1481.153-198.33-2221.723
		C326.821,237.012,342.477,207.709,369.076,199.206z M449.671,309.439c63.392,711.617,127.109,1423.168,190.499,2134.786
		c273.79,78.711,547.989,156.272,821.852,234.916c14.912,3.573,30.508,12.012,46.033,6.072
		c280.883-80.194,561.691-160.459,842.574-240.646c63.384-711.755,127.037-1423.444,190.427-2135.127
		C1843.955,309.439,1146.773,309.439,449.671,309.439z"/>
</g>
<g>
	<path fill="#B79C00" d="M1098.512,710.139c-2.63-32.465,26.258-62.644,59.065-60.35c74.59-0.198,149.187-0.33,223.704,0
		c32.063-1.345,59.882,28.491,57.311,60.285c0.066,488.521,0.066,977.033,0,1465.627c4.049,37.463-34.964,71.281-71.418,59.402
		c-205.951-56.437-411.426-114.552-617.383-170.922c-27.206-4.988-49.409-29.564-48.13-57.777
		c-0.197-92.343-0.197-184.758,0-277.172c-1.213-24.971,15.927-49.137,39.895-56.165c15.058-5.128,30.984-0.87,45.697,3.178
		c103.622,29.362,207.572,57.246,311.193,86.402C1098.512,1411.836,1098.447,1061.018,1098.512,710.139z M1211.852,763.061
		c0,356.152,0,712.297,0,1068.441c4.112,36.112-31.523,70.207-67.504,61.09c-110.102-29.091-219.451-60.892-329.348-90.859
		c-0.139,54.272-0.066,108.547-0.066,162.745c169.701,47.529,339.948,93.16,509.246,142.166
		c2.492-64.734,0.33-129.602,1.075-194.409c0-383.078,0-766.094,0-1149.101C1287.456,762.995,1249.648,763.061,1211.852,763.061z"/>
</g>
<g>
	<path fill="#E6C62F" d="M1552.136,710.139c-2.638-31.925,25.313-61.833,57.509-60.35c225.193-0.33,450.387-0.066,675.571-0.132
		c33.015-2.834,64.063,27.337,60.279,60.621c-5.869,74.795-12.757,149.45-19.104,224.172c-0.468,29.03-25.513,55.288-54.938,55.148
		c-126.643,1.49-253.414-1.477-379.982,1.425c1.826,110.095,0.276,220.262,0.812,330.356
		c113.067-15.524,225.931-32.539,339.063-47.588c34.906-4.252,66.43,30.238,60.285,64.668
		c-18.703,220.604-38.068,441.203-56.771,661.867c-2.155,20.792-0.942,44.549-15.998,61.161
		c-10.127,12.684-26.191,17.681-41.175,21.8c-184.552,50.291-368.907,101.655-553.592,151.678
		c-33.686,11.272-72.303-17.211-71.689-52.579c-0.744-85.802-0.137-171.663-0.336-257.462
		c-1.893-25.444,14.041-51.502,39.013-58.722c115.362-33.282,231.871-62.578,347.034-96.533c1.214-33.212,4.187-66.356,6.21-99.568
		c-109.351,18.498-218.574,38.003-327.931,56.165c-33.213,6.006-65.946-23.758-64.193-57.18
		C1551.932,1349.462,1552.136,1029.771,1552.136,710.139z M1665.475,763.061c0,280,0,560.006,0,840.012
		c109.829-18.906,219.588-38.075,329.479-56.704c33.211-7.767,68.648,20.995,67.027,55.214
		c-3.507,72.164-9.241,144.328-14.041,216.419c-1.009,25.513-21.121,47.45-45.895,52.446
		c-112.198,30.654-224.186,62.244-336.508,92.416c-0.139,47.791-0.139,95.585,0,143.372
		c152.351-41.913,304.845-83.7,457.131-125.752c16.809-194.75,33.553-389.493,50.225-584.179
		c-97.2,13.712-194.407,27.41-291.614,41.319c-18.022,2.294-36.046,6.474-54.272,5.129c-27.338-3.579-49.078-29.435-47.932-56.976
		c-0.264-151.006-0.469-302.077,0.072-453.147c-0.942-31.59,28.828-58.591,60.147-56.165c126.025,0,252.12-0.064,378.153,0.066
		c3.574-37.799,6.68-75.598,9.916-113.396C2040.043,762.995,1852.794,763.061,1665.475,763.061z"/>
</g>
</svg>
