<svg xmlns="http://www.w3.org/2000/svg" width="3000" height="3000" xmlns:v="https://vecta.io/nano"><path fill="#4584b6" d="M850.488 1767.595c-3.008-72.709 19.428-146.953 65.07-204.011 53.586-70.156 138.543-116.34 227.057-119.577l601.828-.844c167.151-7.636 312.021-156.283 316.338-323.272l.229-539.155c.773-36.389 1.158-73.553-10.1-108.556-28.604-106.469-113.641-190.895-213.176-233.994-70.16-32.46-148.262-38.471-223.971-47.106-172.315-15.959-347.33-10.101-516.947 25.286-92.285 20.819-191.278 59.139-241.243 145.022-53.043 92.053-39.087 202.311-41.554 303.922-2.777 29.68 19.505 61.756 50.961 61.68l519.798-.15v64.839l-712.543-.157c-82.189-.075-166.534 15.961-236.771 60.527-91.747 54.195-155.432 147.564-184.035 249.104-24.903 99.609-44.177 201.148-46.877 304.005-1.23 75.171 7.018 150.184 20.589 224.037 18.116 97.381 40.323 197.534 97.913 280.183 51.271 76.557 134.15 133.846 226.668 144.793 79.26 8.328 159.133 1.152 238.698 3.697 30.147 4.013 63.147-18.966 61.987-50.964l.081-239.309zm-106.318-53.511c-3.47 78.718.927 157.594-2.314 236.304-80.875-5.392-167.303 13.809-243.011-23.589-77.87-40.244-120.275-124.284-142.402-205.621-25.367-98.144-42.943-198.84-43.869-300.452 1.386-64.991 8.79-129.757 21.432-193.438 14.728-72.009 29.144-147.572 75.171-207.172 53.197-73.696 142.168-117.26 232.53-118.646l794.19-.467c28.373 1.162 56.746-20.892 56.129-50.731l.771-176.859c1.156-30.223-26.445-56.514-56.359-54.51l-512.705.073c1.928-69.238-9.717-144.867 27.985-207.081 37.778-55.361 106.937-74.102 168.384-89.673 151.575-32.073 308.008-36.469 462.127-24.904 80.953 8.717 166.457 11.722 238.932 53.125 72.471 39.634 131.76 114.188 132.223 199.53l-.23 562.436c-2.391 114.563-101.463 217.495-216.264 222.583-187.885-.542-375.701.459-563.512-.458-36.621-.317-73.318 2.463-108.939 11.173-170.621 37.931-307.394 193.596-320.269 368.377z"/><path fill="#646464" d="M1085.098 362.852c-46.414 13.491-80.029 61.302-76.482 109.639-.846 58.516 53.197 108.862 111.102 107.012 59.67.616 112.408-55.197 107.858-114.873 1.235-69.855-76.637-125.827-142.478-101.778z"/><path fill="#ffde57" d="M2542.569 915.422c-80.955-47.418-177.403-34.775-266.913-36.312-38.32 1.075-76.869-2.619-114.955 2.228-25.367 7.711-38.783 35.553-37.702 60.761l.08 240.082c5.474 159.444-134.847 308.552-294.903 310.48l-592.349.618c-64.378 3.237-127.366 26.206-179.099 64.682-88.59 63.371-143.405 170.468-144.098 279.325l-.154 539.612c.464 48.954 11.795 98.225 35.08 141.397 48.878 89.897 139.393 148.114 232.759 183.885 113.721 41.863 234.841 63.149 355.964 65.302 124.9-2.396 249.723-24.981 366.915-68.388 95.137-36.93 188.272-98.761 231.449-194.675 36.85-73.245 23.049-156.893 25.903-235.61 3.625-30.146-24.519-58.44-54.434-56.903-171.773.539-343.627-.461-515.479.391l.309-68.004 754.176.077c38.934-.304 78.334 2.47 116.574-6.627 80.72-15.118 149.418-71.015 189.818-141.321 48.26-82.655 78.716-174.555 101.459-267.15 41.017-174.163 18.195-355.813-25.214-527.198-28.829-111.018-80.178-228.594-185.186-286.652zm89.515 846.467c-21.897 67.068-43.485 135.689-83.731 194.521-32.768 53.112-94.755 82.339-156.434 79.718-285.34 1.153-570.685-.464-856.022.769-28.838-1.458-54.125 26.218-52.814 54.514l-.076 169.843c-2.236 29.528 22.434 59.209 52.813 58.832l516.637-.316c-.385 47.345 4.854 97.226-16.81 141.174-32.768 67.927-101.613 109.246-169.384 136.156-154.196 56.355-323.35 77.641-485.491 46.802-101.924-19.434-207.933-46.96-288.269-116.268-44.256-36.705-72.322-92.293-71.012-150.266l.463-424.436c.696-56.663-5.474-114.096 6.169-170.074 23.051-100.688 118.806-181.799 223.197-181.566h569.684c122.511.919 241.936-60.443 317.803-155.582 60.597-73.636 93.828-168.697 93.902-263.837l-.463-193.047c55.742-2.169 111.484-.392 167.228-1.086 56.594-1.159 112.257 25.985 146.723 70.699 51.963 66.227 73.089 149.958 90.437 230.755 35.003 154.887 44.716 319.657-4.55 472.695z"/><path fill="#646464" d="M1797.798 2577.974c63.761 7.093 124.125-51.966 118.345-116.032-.31-70.934-81.029-125.743-146.951-98.761-40.627 14.486-71.621 54.587-72.856 98.067-4.09 57.516 43.021 114.18 101.462 116.726z"/></svg>