<?xml version="1.0" encoding="utf-8"?>
<!-- Generator: Adobe Illustrator 16.0.0, SVG Export Plug-In . SVG Version: 6.00 Build 0)  -->
<!DOCTYPE svg PUBLIC "-//W3C//DTD SVG 1.1//EN" "http://www.w3.org/Graphics/SVG/1.1/DTD/svg11.dtd">
<svg version="1.1" id="Layer_1" xmlns="http://www.w3.org/2000/svg" xmlns:xlink="http://www.w3.org/1999/xlink" x="0px" y="0px"
	 width="3000px" height="3000px" viewBox="0 0 3000 3000" enable-background="new 0 0 3000 3000" xml:space="preserve">
<g>
	<path fill="#23C979" d="M2566.48,362.083c19.584-19.146,38.293-39.229,58.473-57.784c48.787,50.04,98.699,99.016,148.082,148.49
		c-241.101,242.164-483.294,483.264-724.771,724.99c-63.749,64.187-128.468,127.437-191.594,192.218
		c-165.981-164.638-330.774-330.527-496.351-495.633c49.256-49.693,99.42-98.546,148.146-148.771
		c115.226,113.319,228.669,228.544,343.396,342.363c1.248,0.937,3.811,2.81,5.061,3.719
		C2093.182,834.884,2330.003,598.656,2566.48,362.083z"/>
	<path fill="#6B6B6B" d="M353.127,488.21c58.16-68.062,146.491-109.29,236.135-109.509c540.36-0.094,1080.721,0,1621.081-0.03
		c43.666,0.717,88.083-3.188,130.968,7.309c13.618,2.748,26.769,7.403,40.23,10.869c-62.908,64.875-127.938,127.75-191.221,192.249
		c-533.77,0.375-1067.539,0.063-1601.31,0.157c-23.207,0.812-46.166,9.183-64.001,24.112c-23.643,19.24-37.947,49.257-38.418,79.711
		c0,553.917,0,1107.833,0,1661.781c0.156,17.211-1.28,34.762,3.562,51.568c10.995,44.289,53.598,77.772,99.17,78.367
		c564.192-0.031,1128.416,0.061,1692.641-0.064c53.349-1.246,100.044-48.414,100.794-101.76c0.094-462.338,0-924.675,0.063-1386.979
		c-0.749-4.122,3.343-6.402,5.591-9.09c68.498-68.121,136.621-136.62,205.088-204.806c-0.03,531.647,0,1063.259-0.03,1594.875
		c0.187,39.479-6.902,78.993-21.146,115.818c-32.017,83.587-101.17,152.021-185.253,182.817c-21.553,8.4-44.26,13.336-67.063,17.084
		c-30.142,3.75-60.501,2.529-90.799,2.719c-540.393,0-1080.753,0-1621.145,0c-80.304,3.435-161.606-23.769-222.173-76.866
		c-68.872-58.599-110.289-148.022-109.978-238.479c-0.03-562.259,0-1124.543,0-1686.8C276.071,618.615,303.87,544.37,353.127,488.21
		z"/>
	<path fill="#395B50" d="M851.758,1455.332c51.505-23.707,110.508-29.237,165.919-18.274
		c59.472,10.587,115.099,43.073,152.112,90.986c34.951,44.418,53.88,100.701,54.287,157.079c-70.123,0.034-140.213,0.034-210.305,0
		c-1.155-10.057-3.498-20.613-10.713-28.175c-12.214-12.866-31.485-15.521-48.321-14.179c-26.237,2.403-47.882,27.142-46.82,53.41
		c0.313,26.458,23.239,50.385,49.758,51.382c54.349-0.53,108.884,16.084,153.361,47.479
		c50.444,35.014,88.083,88.207,103.888,147.584c13.118,48.819,11.713,101.201-2.781,149.518
		c-16.865,56.224-53.566,106.546-102.854,138.593c-49.915,33.326-111.479,47.162-170.949,42.603
		c-43.195-2.093-86.551-12.368-124.625-33.263c-45.979-24.866-82.085-67.094-99.608-116.319
		c-11.464-32.046-17.43-66.313-16.555-100.359c70.123,0.409,140.214,0.03,210.334,0.189c0.063,12.618-1.375,31.174,13.808,35.889
		c20.177,5.088,42.414,6.528,62.469,0.22c27.768-9.498,35.544-46.229,24.236-70.717c-8.619-19.24-29.484-31.796-50.476-30.796
		c-58.157-0.283-115.787-20.992-161.171-57.287c-42.854-34.172-74.963-81.835-89.611-134.715
		c-14.961-52.037-12.838-108.571,5.435-159.485C735.97,1540.196,787.665,1484.439,851.758,1455.332z"/>
	<path fill="#395B50" d="M1589.24,1647.456c55.941-10.277,114.662-4.844,167.794,15.397c52.754,20.021,99.98,54.409,135.12,98.577
		c44.572,55.223,69.342,125.872,69.279,196.811c-140.558,0.061-281.082-0.031-421.605,0.061
		c0.313,30.516,14.086,60.786,37.637,80.338c18.678,15.771,42.947,24.8,67.404,24.957c98.89-0.063,197.747,0,296.637-0.032
		c-31.642,93.048-110.509,168.354-204.523,196.813c-52.069,16.178-108.354,17.959-161.455,5.868
		c-109.008-23.769-201.243-110.009-232.697-217.018c-16.896-55.628-17.865-116.035-2.778-172.196
		c15.272-57.724,47.663-110.604,91.486-151.053C1475.391,1685.779,1530.551,1657.763,1589.24,1647.456z"/>
</g>
</svg>
