<svg xmlns="http://www.w3.org/2000/svg" width="3000" height="3000" xmlns:v="https://vecta.io/nano"><path d="M209.372 1020.631c104.423 5.938 205.35-79.616 211.179-184.992 9.014-78.559-32.44-159.131-101.453-197.399-47.18-28.621-105.802-31.696-158.494-19.613C70.28 641.526 4.021 732.487 10.699 825.564c2.334 103.79 94.884 194.325 198.673 195.067zm397.656-9.646c75.907 24.916 165.065 1.273 217.648-59.156 50.886-55.974 65.093-141.318 37.208-211.392-35.723-95.732-147.25-149.27-245.101-122.554-83.011 20.992-147.996 98.378-151.816 184.252-8.052 91.49 54.181 182.773 142.061 208.85zm668.846-20.887c66.149-32.016 69.438-149.479-7.849-169.724 16.113-19.931 35.728-41.345 33.604-69.122 6.575-49.932-36.892-94.248-85.127-97.96-53.958-3.815-108.136-.527-162.198-1.377v358.538c73.466-4.876 153.401 14.949 221.57-20.355zm-43.576-45.48c-36.043 12.936-75.586 4.562-113.007 6.896v-95.205c39.223 2.76 81.734-7.525 118.521 9.861 31.699 15.265 26.612 66.791-5.514 78.448zm-113.007-233.334c28.196-.212 56.718-2.651 84.915 1.378 33.817 4.982 45.589 53.534 18.765 73.997-30.529 18.765-68.271 12.188-102.302 14.1-1.59-29.791-1.802-59.684-1.378-89.475zm309.027 299.381V872.744c25.021 3.179 58.838-9.861 76.014 14.417 27.145 38.166 43.047 82.906 66.051 123.504l71.662.212c-25.24-55.124-48.76-112.37-86.818-159.972 26.711-17.279 53.847-39.331 58.826-72.938 14.203-53.751-23.637-112.375-78.229-121.703-56.62-9.122-114.182-2.651-171.112-4.453v358.642l63.606.212zm.743-300.334c31.275 2.226 64.99-5.196 94.775 7.103 37.313 16.959 33.503 77.497-4.554 91.488-29.265 8.801-60.856 3.287-90.963 4.877l.742-103.468zm316.246 299.065l-.436-356.953-65.078-.846-.218 358.642c21.835.534 43.782.324 65.732-.843zm157.002-298.536v299.7c21.834.213 43.678-.108 65.627-1.061-.104-99.864-2.649-199.729 1.367-299.382 37.104.845 74.323.845 111.646.633l-.114-58.94c-97.433-.108-194.749 0-292.067-.108v59.05l113.541.108zm288.154 298.749l-.436-357.379-64.986-.42-.104 358.642c21.733.213 43.577 0 65.526-.843zm230.248-63.82c-47.914 28.196-105.27 6.568-151.07-15.059l-25.965 53.219c62.76 36.261 145.449 45.268 211.283 11.874 55.863-26.818 72.408-111.102 27.672-155.206-40.282-36.893-98.59-39.967-143.23-69.225-20.885-13.464-19.92-49.617 4.349-58.731 47.603-16.964 98.807-.954 143.438 17.6l-.528-63.506c-56.827-20.354-122.972-28.62-179.166-2.438-54.271 25.229-68.164 103.788-29.361 147.891 38.479 38.695 97.108 40.921 141.947 68.802 22.899 12.935 24.277 52.054.631 64.779zm204.615 63.286c-1.273-50.885-.537-101.878-.642-152.768l171.111-.104v154.144l63.713.104V651.81H2795.9v145.345c-57.033-.109-114.067.314-171.111-.321V652.339l-64.978-.638-.217 358.75c21.836.425 43.783.001 65.732-1.376zM403.271 1181.244c-41.134-93.61-157.856-142.271-253.797-107.606-118.525 35.94-177.045 189.023-112.691 294.935 54.487 103.042 201.954 135.167 296.094 67.957 81.948-53.01 111.527-167.719 70.394-255.286zm261.536 289.842c88.1 6.253 173.649-54.705 200.579-137.922 24.914-73.046 4.984-159.871-51.631-212.986-51.521-50.78-130.819-69.546-200.153-49.719-94.987 24.593-161.985 124.779-147.57 221.992 9.435 97.959 99.864 180.862 198.775 178.635zm627.604-53.748c-6.259-18.977-13.251-37.637-20.778-56.081-46.225 20.354-108.136 28.196-147.148-10.71-50.461-53.219-48.659-150.111 6.894-199.091 39.331-33.606 96.153-24.914 140.044-5.622 7.739-18.23 14.842-36.681 21.204-55.446-66.259-27.77-150.438-33.18-209.063 14.212-80.463 68.587-85.234 205.133-18.024 284.325 57.565 61.698 153.931 58.204 226.871 28.413zm37.53-50.676c57.351 90.219 204.601 95.835 270.756 12.722 52.054-66.791 54.496-167.606 10.496-239.063-38.904-61.59-120.539-83.113-188.49-65.198-122.448 30.426-155.738 194.536-92.762 291.539zm109.72-233.548c47.179-18.025 103.151 9.964 120.866 56.397 24.267 56.719 15.901 135.275-36.588 173.334-46.002 32.756-117.034 13.464-140.25-37.845-32.543-64.031-18.449-164.746 55.972-191.886zm964.517 252.633c57.033 64.24 155.635 62.547 229.523 31.481l-18.771-55.548c-46.649 17.382-107.392 29.044-146.93-9.437-59.053-58.096-49.404-175.771 26.919-215 39.02-17.067 81.85-4.663 120.331 7.847 6.254-18.551 11.772-37.419 17.603-56.184-69.873-27.25-159.447-31.806-217.111 23.428-69.976 70.926-73.372 196.443-11.564 273.413zm-724.5-312.851l.323 238.318c0 43.782 21.099 91.278 62.759 109.938 49.301 22.901 108.457 22.052 158.814 2.967 44.516-18.128 69.861-65.834 69.541-112.692 2.328-79.51.104-159.021.951-238.531-21.938-.212-43.887.108-65.629 1.273l.748 206.091c-.953 26.291.319 57.144-20.148 77.073-22.155 24.593-58.824 21.094-88.621 18.236-34.35-5.302-56.193-41.138-53.432-74.422l.632-226.342c-21.947-2.012-43.999-2.436-65.938-1.909zm342.322.109v358.642l66.568-.104c-.84-84.072 2.34-168.246-2.537-252.1 60.006 80.675 113.115 166.549 172.801 247.54 17.807 9.752 40.294 2.97 60.007 4.875v-358.962h-63.608l-.527 233.765c-57.355-74.106-104.845-155.418-161.248-230.162-22.8-7.951-47.811-2.649-71.456-3.494zm654.314-.109l.113 358.857 65.088-.739.321-356.954c-21.842-1.055-43.791-1.376-65.522-1.164zm183.196 0a6483.94 6483.94 0 0 0-63.608 0v358.75c67.108-.632 134.319 1.697 201.428-1.27v-57.882l-137.291.526-.529-300.124z" fill="#1c558e"/><path d="M2812.279 1970.407c-60.223-48.97-138.459-65.191-210.021-90.526-55.657-20.042-115.871-30.851-166.227-63.4-29.154-17.808-37.105-63.08-11.99-87.668 39.758-42.198 106.337-41.143 158.504-27.043 45.471 12.404 71.229 57.563 75.473 102.103 66.156 2.649 132.519.517 198.776 1.055 1.388-66.154-20.561-133.687-67.313-181.393-64.884-66.26-161.258-90.848-251.576-89.264-88.941-1.698-184.676 16.327-253.046 77.077-68.91 57.873-93.405 158.699-68.175 243.729 20.354 67.843 77.813 118.2 140.364 147.354 81.415 37.426 168.773 59.154 253.904 86.291 26.606 9.226 59.789 19.607 66.363 51.103 15.262 38.265-17.29 78.351-53.433 88.735-58.422 16.637-127.217 18.127-179.375-16.969-36.68-24.382-48.336-70.711-51.102-112.166-68.381.953-136.969-2.959-205.246 2.236 8.902 65.09 21.1 132.829 62.655 185.939 56.507 75.38 154.569 104.107 245.104 105.808 105.591 3.925 220.509-7.424 306.168-75.163 105.067-81.735 112.17-260.79 10.193-347.838zM57.075 1555.896v816.309l209.59-.313.424-815.25c-69.97-1.595-140.044-.435-210.014-.746zm506.217 646.686l-.424-163.265c140.571-2.436 281.147-.415 421.727-.953l.104-167.075c-140.044.311-280.087-.85-420.028.642-2.857-48.772-.85-97.648-1.377-146.411h421.405v-169.621H351.265v816.308l636.296-.312.103-168.889-424.372-.424zm712.942-646.686h-212.026v816.309h596.327V2191.98h-384.3l-.001-636.084zm228.036-.102c-.633 55.118 1.17 110.146-1.377 165.272 78.134 4.026 156.269.745 234.4 1.698l-.953 647.948c70.918 3.293 141.951.538 212.98 1.491l1.596-650.081c78.122 1.593 156.257.435 234.39.642l.425-166.227-681.461-.743zm1492.25-3.706l-32.012 3.386c-4.027 18.552-9.006 37-15.693 54.809-5.611-18.979-8.688-38.793-17.485-56.609-38.907 3.28-77.823-2.434-116.73-.735l.114 18.117 28.521 2.236c3.064 25.54 1.584 51.516 2.216 77.274l20.893-.207.104-76.654 33.397-3.912c-.217 25.758-1.696 51.618.852 77.377l20.768 5.736 1.489-64.894c6.461 24.185 7.631 51.849 27.777 69.76 15.271-20.563 20.779-45.906 27.457-70.068-.851 21.947-1.067 43.896 0 65.946l16.223-5.632c5.298-31.69 1.694-64.022 2.109-95.93z" fill="#bf003b"/></svg>