<?xml version="1.0" encoding="UTF-8" ?>
<!DOCTYPE svg PUBLIC "-//W3C//DTD SVG 1.1//EN" "http://www.w3.org/Graphics/SVG/1.1/DTD/svg11.dtd">
<svg width="889pt" height="1151pt" viewBox="0 0 889 1151" version="1.1" xmlns="http://www.w3.org/2000/svg">
<g id="#ffffffff">
</g>
<g id="#ed2025ff">
<path fill="#ed2025" opacity="1.00" d=" M 566.59 17.50 C 567.45 17.43 568.31 17.36 569.19 17.28 C 573.83 23.60 578.14 30.33 580.18 37.98 C 585.73 58.14 589.19 79.02 588.79 99.97 C 588.84 125.32 583.14 150.67 572.27 173.57 C 564.97 189.03 555.42 203.39 544.42 216.46 C 531.96 230.64 517.75 243.11 504.17 256.18 C 480.95 278.63 457.29 300.64 434.62 323.65 C 419.93 339.00 405.33 354.52 392.62 371.58 C 380.95 387.46 370.50 404.75 365.57 424.00 C 361.86 438.80 364.97 454.20 369.18 468.54 C 375.56 490.56 385.65 511.30 396.69 531.33 C 407.93 551.97 420.77 571.69 433.76 591.26 C 438.84 598.89 445.30 605.65 449.19 614.04 C 440.88 604.93 431.37 597.01 423.35 587.63 C 397.41 560.42 372.24 532.38 349.66 502.29 C 338.31 487.07 327.20 471.55 318.61 454.57 C 313.05 443.74 307.74 432.33 307.14 419.97 C 305.67 400.92 313.74 382.69 323.61 366.88 C 339.11 343.23 359.20 323.03 380.02 304.07 C 409.65 277.18 440.64 251.85 471.62 226.55 C 485.90 214.92 500.49 203.56 513.12 190.10 C 544.51 158.18 565.73 115.69 569.63 70.89 C 571.55 53.05 569.57 35.10 566.59 17.50 Z" />
<path fill="#ed2025" opacity="1.00" d=" M 689.45 240.55 C 691.40 239.97 693.42 239.58 695.46 239.39 C 694.53 240.46 693.57 241.53 692.37 242.29 C 661.19 261.75 630.14 281.56 601.01 304.05 C 587.08 314.65 573.61 325.88 560.99 338.02 C 546.02 352.70 531.74 368.78 523.10 388.10 C 517.63 400.20 515.84 414.18 519.82 427.01 C 524.84 443.41 534.91 457.58 544.12 471.85 C 555.57 489.05 566.90 506.69 573.51 526.42 C 577.71 538.36 580.05 551.35 577.35 563.90 C 573.94 580.38 564.36 594.86 553.45 607.38 C 538.97 623.39 522.19 637.24 504.15 649.07 C 500.86 651.18 497.74 653.72 493.92 654.86 C 499.02 646.43 505.52 638.93 510.52 630.42 C 517.87 618.05 525.98 604.93 525.74 590.00 C 526.27 574.73 518.32 561.03 510.33 548.63 C 500.79 534.63 490.75 520.98 481.13 507.04 C 469.43 489.88 460.87 470.39 457.49 449.83 C 453.73 429.38 456.39 407.89 464.63 388.82 C 476.63 360.36 498.89 337.71 523.13 319.22 C 556.34 293.92 594.17 275.43 632.81 259.97 C 651.37 252.61 670.31 246.24 689.45 240.55 Z" />
</g>
<g id="#0e8ac8ff">
<path fill="#0e8ac8" opacity="1.00" d=" M 737.72 613.81 C 755.25 608.81 774.06 607.66 791.92 611.57 C 804.42 614.43 816.34 619.78 826.77 627.23 C 837.30 634.55 846.59 643.94 852.62 655.34 C 862.17 673.41 863.04 695.69 855.44 714.61 C 849.79 728.74 840.54 741.14 830.14 752.12 C 816.53 766.55 800.36 778.32 783.29 788.30 C 758.75 802.84 732.05 813.41 704.83 821.73 C 700.10 823.14 695.42 824.91 690.43 825.07 C 701.37 817.74 712.86 811.25 723.63 803.65 C 742.11 791.16 759.48 777.01 775.36 761.35 C 785.20 751.09 794.92 740.55 802.23 728.28 C 810.62 714.36 816.86 698.42 816.22 681.93 C 815.26 668.56 811.08 655.00 802.36 644.61 C 794.73 635.55 783.89 629.72 772.59 626.62 C 754.16 621.70 734.66 621.91 716.04 625.64 C 722.11 619.90 729.73 616.06 737.72 613.81 Z" />
<path fill="#0e8ac8" opacity="1.00" d=" M 291.09 622.46 C 299.49 621.50 307.95 619.85 316.41 621.00 C 287.12 630.03 256.80 637.03 229.62 651.67 C 222.93 655.49 215.74 660.21 213.44 668.04 C 214.42 670.64 215.79 673.29 218.42 674.57 C 226.62 679.11 236.05 680.69 245.21 682.14 C 295.45 689.09 346.29 688.94 396.90 688.80 C 420.64 688.89 444.32 687.06 467.99 685.50 C 534.22 680.88 600.32 673.87 665.91 663.46 C 672.31 662.55 678.65 661.20 685.12 660.78 C 683.45 662.24 681.68 663.59 679.79 664.76 C 667.80 672.10 655.80 679.43 643.86 686.86 C 641.76 688.16 639.51 689.30 637.05 689.71 C 595.87 696.14 554.54 701.59 513.09 706.03 C 475.17 710.26 437.12 713.38 398.99 714.87 C 361.19 716.89 323.33 714.96 285.57 713.10 C 257.04 711.39 228.52 709.09 200.18 705.29 C 181.75 702.96 163.27 699.73 145.82 693.17 C 141.07 691.16 135.75 688.57 133.59 683.59 C 132.27 677.62 138.05 673.46 142.02 670.07 C 156.22 660.24 172.35 653.67 188.45 647.66 C 221.65 635.70 256.08 627.00 291.09 622.46 Z" />
<path fill="#0e8ac8" opacity="1.00" d=" M 245.73 758.79 C 255.45 753.42 266.23 750.25 277.12 748.33 C 272.50 753.61 266.87 758.79 265.56 766.02 C 264.70 770.73 267.38 775.26 271.01 778.07 C 276.01 781.97 282.01 784.40 288.07 786.16 C 307.94 791.40 328.58 792.43 349.01 793.34 C 396.37 794.73 443.75 792.29 490.93 788.36 C 524.08 785.51 557.13 781.32 589.89 775.52 C 593.23 774.95 596.86 774.33 600.02 775.96 C 604.00 778.14 607.19 781.46 610.80 784.18 C 620.17 791.65 630.85 797.47 642.36 800.88 C 630.63 805.67 618.29 808.67 606.11 812.03 C 545.93 828.35 483.42 836.33 421.06 834.32 C 398.74 833.26 376.38 833.16 354.09 831.46 C 326.54 829.50 298.98 826.57 271.96 820.75 C 261.10 818.49 250.42 815.24 240.28 810.73 C 233.77 807.80 226.95 803.99 223.61 797.37 C 220.45 791.00 222.12 783.47 225.45 777.53 C 229.75 769.10 237.65 763.30 245.73 758.79 Z" />
<path fill="#0e8ac8" opacity="1.00" d=" M 277.48 876.71 C 284.91 873.20 292.65 869.44 301.01 869.19 C 298.57 873.41 295.08 877.75 295.95 882.97 C 297.01 889.39 303.24 892.99 308.76 895.24 C 320.64 899.66 333.37 901.43 346.00 901.67 C 386.11 903.73 426.36 904.21 466.46 901.61 C 498.18 899.62 530.14 897.21 561.00 889.21 C 566.26 887.54 570.82 891.36 575.08 893.84 C 591.15 903.93 608.05 912.66 625.56 920.00 C 615.22 924.60 604.20 927.32 593.42 930.61 C 562.96 939.53 531.97 946.84 500.52 951.21 C 468.63 955.76 436.26 956.38 404.13 954.50 C 369.13 952.49 333.86 949.11 300.16 938.94 C 286.50 934.48 272.34 929.39 261.84 919.16 C 255.90 913.57 252.59 904.56 255.74 896.70 C 259.45 887.04 268.72 881.27 277.48 876.71 Z" />
<path fill="#0e8ac8" opacity="1.00" d=" M 154.16 954.62 C 172.30 951.71 190.61 948.91 209.03 949.68 C 212.06 949.78 215.06 950.27 218.05 950.77 C 190.80 955.41 163.08 959.75 137.50 970.71 C 128.89 974.55 119.34 979.05 115.15 988.07 C 113.23 991.84 114.93 996.35 118.13 998.81 C 125.78 1004.96 135.42 1007.77 144.75 1010.26 C 165.86 1015.70 187.45 1019.01 209.05 1021.76 C 242.26 1026.09 275.65 1028.82 309.07 1030.93 C 337.98 1033.15 367.00 1032.40 395.97 1032.30 C 457.04 1031.32 518.10 1029.13 579.04 1025.06 C 630.67 1021.03 682.52 1016.99 733.28 1006.25 C 750.13 1002.54 767.19 998.58 782.68 990.74 C 788.65 987.46 795.09 983.81 798.32 977.53 C 801.20 971.31 797.90 964.71 795.45 958.96 C 801.60 962.42 807.40 967.29 809.91 974.09 C 811.45 978.01 810.04 982.40 807.53 985.58 C 803.33 990.99 797.99 995.43 792.35 999.27 C 774.76 1010.85 755.12 1018.90 735.13 1025.32 C 692.46 1038.71 648.19 1046.32 603.80 1051.26 C 548.39 1057.22 492.68 1059.43 437.00 1061.06 C 376.66 1062.36 316.25 1062.03 255.96 1059.11 C 207.75 1056.21 159.34 1053.20 111.83 1044.05 C 93.55 1040.31 74.87 1036.56 58.30 1027.61 C 51.79 1024.23 45.56 1018.71 44.68 1011.01 C 46.02 1003.79 49.50 996.93 54.96 991.97 C 66.57 981.03 81.50 974.57 96.34 969.27 C 115.17 962.82 134.55 957.98 154.16 954.62 Z" />
<path fill="#0e8ac8" opacity="1.00" d=" M 816.66 1041.78 C 832.09 1034.21 846.42 1024.66 860.20 1014.44 C 858.70 1023.57 852.79 1031.11 846.50 1037.55 C 833.66 1051.08 817.26 1060.55 800.58 1068.55 C 763.14 1086.81 721.96 1095.25 681.10 1101.75 C 631.42 1109.77 581.22 1114.19 531.00 1117.01 C 478.32 1119.67 425.45 1119.55 372.81 1116.10 C 319.36 1112.39 265.91 1105.28 214.26 1090.68 C 209.09 1089.00 203.54 1088.22 198.83 1085.36 C 229.66 1087.43 260.40 1090.89 291.22 1093.07 C 345.39 1096.56 399.65 1099.01 453.94 1098.83 C 508.38 1098.84 562.86 1096.71 617.02 1090.99 C 663.35 1086.03 709.62 1078.76 754.40 1065.63 C 775.75 1059.41 796.79 1051.83 816.66 1041.78 Z" />
</g>
</svg>
