<?xml version="1.0" encoding="UTF-8" ?>
<!DOCTYPE svg PUBLIC "-//W3C//DTD SVG 1.1//EN" "http://www.w3.org/Graphics/SVG/1.1/DTD/svg11.dtd">
<svg width="1118pt" height="611pt" viewBox="0 0 1118 611" version="1.1" xmlns="http://www.w3.org/2000/svg">
<g id="#383939ff">
<path fill="#383939" opacity="1.00" d=" M 262.68 90.10 C 306.90 87.13 351.88 89.68 394.80 101.31 C 410.97 105.91 427.04 111.73 441.20 120.97 C 447.82 125.42 454.43 130.73 457.75 138.19 C 460.05 143.09 457.64 148.54 454.47 152.42 C 446.33 162.50 434.58 168.69 422.97 173.94 C 393.90 186.43 362.38 192.04 331.01 194.72 C 323.05 195.79 314.98 195.25 307.01 196.19 C 296.34 196.51 285.64 196.64 275.01 195.62 C 259.91 195.38 244.88 193.54 229.95 191.38 C 204.52 187.22 179.04 180.95 156.11 168.86 C 147.85 164.24 139.51 158.90 134.00 151.01 C 131.84 147.65 129.92 143.45 131.39 139.44 C 133.91 131.99 140.21 126.73 146.39 122.28 C 159.00 113.50 173.50 107.93 188.05 103.26 C 212.28 95.90 237.45 91.92 262.68 90.10 Z" />
<path fill="#383939" opacity="1.00" d=" M 130.88 195.80 C 149.17 206.71 169.21 214.37 189.80 219.64 C 219.88 227.54 250.98 231.07 282.02 231.95 C 292.99 232.78 304.01 232.31 314.97 231.57 C 335.91 230.88 356.82 228.68 377.39 224.66 C 405.70 219.31 433.74 210.64 458.60 195.82 C 458.75 212.54 458.58 229.27 458.69 246.00 C 459.81 254.56 453.54 261.39 447.50 266.47 C 441.69 271.19 435.24 275.11 428.48 278.31 C 402.65 290.70 374.27 296.55 346.02 300.20 C 306.57 304.71 266.49 304.21 227.27 297.87 C 210.91 295.16 194.67 291.43 179.06 285.79 C 165.58 280.94 152.22 274.95 141.11 265.74 C 135.91 261.22 130.67 255.30 130.80 247.98 C 130.86 230.59 130.72 213.19 130.88 195.80 Z" />
<path fill="#383939" opacity="1.00" d=" M 130.85 302.73 C 144.46 310.67 158.86 317.27 173.92 321.94 C 203.98 331.70 235.49 336.27 266.94 338.33 C 318.19 340.79 370.46 337.00 419.40 320.69 C 433.09 316.18 446.20 310.03 458.61 302.72 C 458.72 320.15 458.61 337.59 458.68 355.02 C 458.94 361.75 454.10 367.20 449.51 371.53 C 438.39 381.33 424.60 387.40 410.83 392.49 C 386.12 401.24 360.11 405.74 334.07 408.21 C 326.05 408.73 318.05 409.75 310.00 409.63 C 293.20 409.56 276.34 410.26 259.60 408.51 C 232.07 406.29 204.52 401.66 178.43 392.37 C 166.55 388.02 154.82 382.84 144.60 375.29 C 139.97 371.71 135.49 367.65 132.63 362.47 C 130.85 359.28 130.76 355.54 130.77 351.99 C 130.88 335.57 130.74 319.15 130.85 302.73 Z" />
<path fill="#383939" opacity="1.00" d=" M 130.83 409.38 C 155.32 424.26 183.10 432.75 211.07 438.19 C 231.51 442.20 252.26 444.29 273.03 445.46 C 290.02 445.61 307.06 446.05 324.02 445.02 C 347.55 443.44 371.01 440.38 393.96 434.86 C 416.51 429.31 438.77 421.60 458.65 409.40 C 458.67 424.63 458.64 439.85 458.67 455.08 C 458.97 462.32 453.51 467.98 448.50 472.48 C 436.03 483.10 420.54 489.23 405.24 494.53 C 370.65 505.70 334.15 509.43 297.95 510.17 C 260.95 509.87 223.57 506.61 188.05 495.70 C 173.48 491.07 159.00 485.44 146.38 476.67 C 139.20 471.45 130.98 464.70 130.82 455.05 C 130.80 439.83 130.80 424.60 130.83 409.38 Z" />
</g>
<g id="#3399dbff">
<path fill="#3399db" opacity="1.00" d=" M 281.21 53.22 C 305.51 52.68 329.89 53.47 353.99 56.80 C 386.46 61.08 419.02 68.62 448.32 83.65 C 464.42 92.23 480.15 103.54 488.79 120.07 C 492.45 127.10 494.53 134.99 494.58 142.93 C 494.59 247.29 494.59 351.66 494.58 456.02 C 494.62 469.82 488.16 482.89 478.91 492.86 C 467.32 505.30 452.32 513.95 436.92 520.81 C 404.34 534.75 369.09 541.25 333.94 544.36 C 291.92 547.74 249.38 545.94 208.00 537.70 C 186.77 533.36 165.80 527.21 146.19 517.90 C 130.10 510.01 114.50 499.70 104.15 484.76 C 98.41 476.33 94.75 466.28 95.07 455.99 C 95.06 351.64 95.06 247.29 95.08 142.95 C 94.67 128.78 101.68 115.34 111.37 105.38 C 121.81 94.27 135.10 86.32 148.78 79.84 C 172.93 68.83 198.92 62.38 225.06 58.23 C 243.66 55.48 262.40 53.48 281.21 53.22 M 262.68 90.10 C 237.45 91.92 212.28 95.90 188.05 103.26 C 173.50 107.93 159.00 113.50 146.39 122.28 C 140.21 126.73 133.91 131.99 131.39 139.44 C 129.92 143.45 131.84 147.65 134.00 151.01 C 139.51 158.90 147.85 164.24 156.11 168.86 C 179.04 180.95 204.52 187.22 229.95 191.38 C 244.88 193.54 259.91 195.38 275.01 195.62 C 285.64 196.64 296.34 196.51 307.01 196.19 C 314.98 195.25 323.05 195.79 331.01 194.72 C 362.38 192.04 393.90 186.43 422.97 173.94 C 434.58 168.69 446.33 162.50 454.47 152.42 C 457.64 148.54 460.05 143.09 457.75 138.19 C 454.43 130.73 447.82 125.42 441.20 120.97 C 427.04 111.73 410.97 105.91 394.80 101.31 C 351.88 89.68 306.90 87.13 262.68 90.10 M 130.88 195.80 C 130.72 213.19 130.86 230.59 130.80 247.98 C 130.67 255.30 135.91 261.22 141.11 265.74 C 152.22 274.95 165.58 280.94 179.06 285.79 C 194.67 291.43 210.91 295.16 227.27 297.87 C 266.49 304.21 306.57 304.71 346.02 300.20 C 374.27 296.55 402.65 290.70 428.48 278.31 C 435.24 275.11 441.69 271.19 447.50 266.47 C 453.54 261.39 459.81 254.56 458.69 246.00 C 458.58 229.27 458.75 212.54 458.60 195.82 C 433.74 210.64 405.70 219.31 377.39 224.66 C 356.82 228.68 335.91 230.88 314.97 231.57 C 304.01 232.31 292.99 232.78 282.02 231.95 C 250.98 231.07 219.88 227.54 189.80 219.64 C 169.21 214.37 149.17 206.71 130.88 195.80 M 130.85 302.73 C 130.74 319.15 130.88 335.57 130.77 351.99 C 130.76 355.54 130.85 359.28 132.63 362.47 C 135.49 367.65 139.97 371.71 144.60 375.29 C 154.82 382.84 166.55 388.02 178.43 392.37 C 204.52 401.66 232.07 406.29 259.60 408.51 C 276.34 410.26 293.20 409.56 310.00 409.63 C 318.05 409.75 326.05 408.73 334.07 408.21 C 360.11 405.74 386.12 401.24 410.83 392.49 C 424.60 387.40 438.39 381.33 449.51 371.53 C 454.10 367.20 458.94 361.75 458.68 355.02 C 458.61 337.59 458.72 320.15 458.61 302.72 C 446.20 310.03 433.09 316.18 419.40 320.69 C 370.46 337.00 318.19 340.79 266.94 338.33 C 235.49 336.27 203.98 331.70 173.92 321.94 C 158.86 317.27 144.46 310.67 130.85 302.73 M 130.83 409.38 C 130.80 424.60 130.80 439.83 130.82 455.05 C 130.98 464.70 139.20 471.45 146.38 476.67 C 159.00 485.44 173.48 491.07 188.05 495.70 C 223.57 506.61 260.95 509.87 297.95 510.17 C 334.15 509.43 370.65 505.70 405.24 494.53 C 420.54 489.23 436.03 483.10 448.50 472.48 C 453.51 467.98 458.97 462.32 458.67 455.08 C 458.64 439.85 458.67 424.63 458.65 409.40 C 438.77 421.60 416.51 429.31 393.96 434.86 C 371.01 440.38 347.55 443.44 324.02 445.02 C 307.06 446.05 290.02 445.61 273.03 445.46 C 252.26 444.29 231.51 442.20 211.07 438.19 C 183.10 432.75 155.32 424.26 130.83 409.38 Z" />
<path fill="#3399db" opacity="1.00" d=" M 789.95 206.16 C 808.65 200.35 828.84 199.88 847.96 203.87 C 865.34 207.48 881.75 216.13 894.12 228.92 C 907.86 242.40 917.03 260.18 921.02 278.95 C 923.83 291.46 924.04 304.35 923.53 317.11 C 922.16 337.83 913.94 357.89 900.93 374.01 C 890.75 387.22 877.10 397.83 861.48 403.79 C 856.37 405.90 850.95 407.05 845.70 408.71 C 845.99 414.78 845.46 420.87 846.10 426.92 C 846.33 429.10 845.98 431.28 845.62 433.42 C 833.24 433.25 820.86 433.34 808.48 433.38 C 808.29 401.13 808.35 368.88 808.45 336.64 C 820.17 336.68 831.89 336.70 843.61 336.63 C 844.12 345.68 843.02 354.81 844.28 363.81 C 854.44 361.71 862.87 354.92 868.68 346.54 C 876.76 334.70 882.05 320.54 881.58 306.06 C 882.03 290.32 876.09 274.86 866.49 262.53 C 858.57 251.95 847.23 243.31 834.01 240.95 C 821.74 239.09 808.63 240.50 797.76 246.81 C 772.56 261.10 758.27 292.51 764.62 320.87 C 768.81 337.21 780.36 351.35 795.24 359.19 C 795.41 374.11 795.32 389.03 795.35 403.94 C 761.52 393.83 733.21 365.99 723.69 331.84 C 719.37 315.65 719.46 298.43 722.75 282.06 C 729.74 247.37 756.25 217.13 789.95 206.16 Z" />
<path fill="#3399db" opacity="1.00" d=" M 611.42 206.70 C 621.36 203.84 631.77 204.29 642.00 204.29 C 659.51 204.30 677.03 204.29 694.55 204.30 C 694.56 216.82 694.51 229.33 694.58 241.85 C 676.14 241.33 657.60 238.85 639.18 241.15 C 633.35 242.08 626.92 243.20 622.67 247.68 C 620.37 249.96 619.57 253.75 621.36 256.56 C 624.81 262.60 630.44 266.90 635.66 271.32 C 649.40 282.20 663.58 292.59 676.50 304.47 C 687.05 314.29 696.32 326.15 700.50 340.14 C 704.72 355.06 701.31 372.13 690.87 383.75 C 678.81 397.06 660.81 404.13 643.02 404.57 C 622.39 404.58 601.75 404.52 581.12 404.60 C 580.96 391.17 580.74 377.72 581.12 364.29 C 603.05 365.12 625.20 368.67 647.03 364.73 C 651.57 363.71 656.91 362.73 659.73 358.63 C 661.91 354.95 659.34 350.81 657.20 347.77 C 648.93 337.01 637.52 329.39 627.44 320.50 C 614.42 309.25 600.79 298.10 591.54 283.37 C 585.09 273.27 580.49 261.86 579.26 249.88 C 577.59 240.18 579.31 229.52 585.75 221.81 C 592.24 213.98 601.84 209.50 611.42 206.70 Z" />
<path fill="#3399db" opacity="1.00" d=" M 943.43 204.29 C 957.45 204.34 971.48 204.20 985.51 204.36 C 985.40 247.25 985.50 290.14 985.46 333.03 C 985.39 340.78 987.55 349.17 993.50 354.52 C 998.00 358.54 1004.07 360.29 1009.99 360.66 C 1018.90 361.85 1027.90 361.46 1036.86 361.58 C 1036.73 375.82 1037.09 390.08 1036.67 404.32 C 1020.11 404.25 1003.55 404.29 986.99 404.28 C 978.64 404.21 969.94 402.99 963.01 397.96 C 950.49 388.92 943.12 373.38 943.41 358.01 C 943.45 306.77 943.41 255.53 943.43 204.29 Z" />
</g>
</svg>
